<svg id="cream2_line" xmlns="http://www.w3.org/2000/svg" viewBox="0 0 450 390"><defs><style>.cls-1{fill:none;stroke:#000;stroke-linecap:round;stroke-linejoin:round;}</style></defs><path class="cls-1" d="M224.16,64.66s-1.55-2.38-6-2c-5.45.44-6.19,1.11-9.86,1.36"/><path class="cls-1" d="M223.47,62a8.47,8.47,0,0,0-6-1.66c-5.45.47-4.58,1.33-8.26,1.74"/><path class="cls-1" d="M206.75,64.87s-1.84-2.17-6.25-1.25c-5.36,1.11-6,1.87-9.62,2.58"/><path class="cls-1" d="M205.73,62.34a8.38,8.38,0,0,0-6.13-.89c-5.35,1.14-4.38,1.88-8,2.75"/><path class="cls-1" d="M188.37,67.21S186.53,65,182.11,66c-5.35,1.11-6,1.87-9.61,2.58"/><path class="cls-1" d="M187.35,64.68a8.43,8.43,0,0,0-6.14-.9c-5.35,1.15-4.37,1.89-8,2.76"/><path class="cls-1" d="M169.86,70.71s-2-2.07-6.31-.9c-5.29,1.41-5.89,2.2-9.46,3.11"/><path class="cls-1" d="M168.7,68.23a8.43,8.43,0,0,0-6.18-.54c-5.27,1.44-4.25,2.13-7.81,3.2"/><path class="cls-1" d="M153.21,74.82s-1.43-1.45-5.68.05c-5.16,1.82-5.25,2.86-8.74,4"/><path class="cls-1" d="M151.86,72.45a8.38,8.38,0,0,0-6.2-.07c-5.15,1.85-3.74,2.83-7.2,4.17"/><path class="cls-1" d="M136.93,80.57a5.49,5.49,0,0,0-4.91,0c-3.94,1.92-4.11,3.55-5.76,5"/><path class="cls-1" d="M135.25,78.42a7,7,0,0,0-5.82.68c-3.75,2-3.89,3.13-5.29,4.4"/><path class="cls-1" d="M123.8,86.74c-3.76-.75-5,3-8.6,5.46"/><path class="cls-1" d="M121.34,84.15c-3.87-.78-5.61,3.13-8.35,6.35"/><path class="cls-1" d="M112.7,93.82s-3.66,1.41-7.54,6.51"/><path class="cls-1" d="M110,92.28s-3.47,1-6.4,6.45"/><path class="cls-1" d="M103.82,102.36s-1.44-.42-5.46,5.4"/><path class="cls-1" d="M100.79,100.34s-2.17-.37-5.21,7.12"/><path class="cls-1" d="M99,110.49s-2.79,1.65-4.74,6.37"/><path class="cls-1" d="M95.82,109.49s-2.8.88-4.5,7.21"/><path class="cls-1" d="M243.27,64.66s-1.55-2.38-6-2c-5.46.44-6.19,1.11-9.87,1.36"/><path class="cls-1" d="M242.58,62a8.47,8.47,0,0,0-6-1.66c-5.45.47-4.57,1.33-8.26,1.74"/><path class="cls-1" d="M262.56,66.42s-1.38-2.49-5.89-2.46c-5.47,0-6.25.66-9.94.64"/><path class="cls-1" d="M262.06,63.74a8.44,8.44,0,0,0-5.85-2.09c-5.47.08-4.66,1-8.36,1.14"/><path class="cls-1" d="M280.5,69.06a7.75,7.75,0,0,0-4.67-1.8c-5.45-.49-6.29,0-10-.32"/><path class="cls-1" d="M281.21,67.55a8.43,8.43,0,0,0-5.62-2.64c-5.45-.45-4.73.55-8.44.34"/><path class="cls-1" d="M297.89,73.24a7.16,7.16,0,0,0-5.1-2.57c-5.42-.71-6.28-.2-9.93-.72"/><path class="cls-1" d="M298.16,71.18a8.45,8.45,0,0,0-5.51-2.86c-5.43-.68-4.75.35-8.44,0"/><path class="cls-1" d="M312.45,78.07A9.37,9.37,0,0,0,310,76.81c-5.16-1.8-6.1-1.48-9.57-2.74"/><path class="cls-1" d="M314,76.81a9,9,0,0,0-3.64-2.33c-5.18-1.77-4.72-.63-8.26-1.74"/><path class="cls-1" d="M327.3,85.55a7.24,7.24,0,0,0-3.62-3c-5-2.22-5.2-.57-9-2.77"/><path class="cls-1" d="M329.38,84a8.65,8.65,0,0,0-4.25-3.86c-5-2.19-4.66-1-8.09-2.41"/><path class="cls-1" d="M337.39,93.92a5.18,5.18,0,0,0-3.66-4.27,15.62,15.62,0,0,1-4.6-2.38"/><path class="cls-1" d="M339.73,91.65s.1-2.33-3-3.56c-2.71-1.07-3.39-1-6-2.42"/><path class="cls-1" d="M347,101.39a5.83,5.83,0,0,0-2.93-3.56,17.82,17.82,0,0,1-4.27-3.38"/><path class="cls-1" d="M349.47,99.79a4.77,4.77,0,0,0-2.36-3.45c-2.43-1.62-3.05-1.66-5.12-3.13"/><path class="cls-1" d="M353,110.42a8.71,8.71,0,0,0-1.81-3.68c-1.62-1.59-2-2.24-3-3.34"/><path class="cls-1" d="M355.13,109.53c-.27-.8-.77-2.19-1.25-3.38a12.69,12.69,0,0,0-2.86-4"/><path class="cls-1" d="M354.84,112.44a30.58,30.58,0,0,1,3.12,6.22"/><path class="cls-1" d="M357.51,111.19a21.79,21.79,0,0,1,3.17,7.61"/><path class="cls-1" d="M358,121.83a32,32,0,0,1,1.11,5.88"/><path class="cls-1" d="M361.61,121.59a22.14,22.14,0,0,1,1,7.1"/><path class="cls-1" d="M87.17,130.24s1.47,1.24,2.71,7"/><path class="cls-1" d="M90.71,128.72s1.06,1.14,2.56,7.08"/><path class="cls-1" d="M90.06,139.63s3.43,1.47,4.81,7.16"/><path class="cls-1" d="M93.27,138s3,.93,4.64,6.83"/><path class="cls-1" d="M95.82,149.34s1.92-.34,5.47,3.08a26.4,26.4,0,0,1,2.8,3.08"/><path class="cls-1" d="M99.14,147.46s1.73.06,4.61,3a17,17,0,0,1,2.58,3.56"/><path class="cls-1" d="M105.22,157.64s1.93-.35,5.48,3.08a25.59,25.59,0,0,1,4,4.73"/><path class="cls-1" d="M107.6,155.53a10.22,10.22,0,0,1,5.56,3.19,27.27,27.27,0,0,1,3.4,5.05"/><path class="cls-1" d="M362.69,131.48a30.46,30.46,0,0,0-2.5,7.37"/><path class="cls-1" d="M359.16,130.66a23.34,23.34,0,0,0-1.93,6"/><path class="cls-1" d="M360.19,141.22a29.09,29.09,0,0,0-5.24,7.57"/><path class="cls-1" d="M357.06,139.37a24.16,24.16,0,0,0-4.48,6.86"/><path class="cls-1" d="M116.75,167s1.78-.82,6.07,1.62a26.78,26.78,0,0,1,4.1,2.79c.39.33.74.64,1.07.95"/><path class="cls-1" d="M118.53,164.39a10.3,10.3,0,0,1,6.18,1.72,26.21,26.21,0,0,1,4.23,3.88"/><path class="cls-1" d="M129.38,174.23s1.61-1.1,6.25.58c5.63,2,5,3.2,8.59,4.88"/><path class="cls-1" d="M130.69,171.33a10.25,10.25,0,0,1,6.38.65c3.15,1.22,4.72,3.43,8.49,4.93"/><path class="cls-1" d="M146.32,180s1.61-1.1,6.26.58c5.63,2,6.35,2.73,10.16,4.06"/><path class="cls-1" d="M147.64,177.14a10.3,10.3,0,0,1,6.37.65c3.16,1.22,4.54,2.7,8.32,4.21"/><path class="cls-1" d="M164.94,185.84s2.15-2.25,6.92-1c5.77,1.58,6.39,2.86,10.3,3.88"/><path class="cls-1" d="M166.22,183.14a9.25,9.25,0,0,1,6.77-.56c5.77,1.61,4.65,2.35,8.53,3.54"/><path class="cls-1" d="M185.31,190s2-2.43,6.82-1.54c5.89,1.09,6.61,2.32,10.59,3"/><path class="cls-1" d="M186.36,187.22a9.26,9.26,0,0,1,6.7-1.14c5.88,1.12,4.83,2,8.8,2.82"/><path class="cls-1" d="M206.33,191.48s1.7-2.61,6.62-2.22c6,.48,6.78,1.21,10.8,1.48"/><path class="cls-1" d="M207.09,188.59a9.22,9.22,0,0,1,6.55-1.81c6,.51,5,1.45,9,1.9"/><path class="cls-1" d="M335.15,164a7,7,0,0,1,2.7-2.66c2.77-1.7,4.18-1.32,7.53-3.57"/><path class="cls-1" d="M332.42,162.82a6,6,0,0,1,2.93-4c4.09-2.55,3.85-1.22,7-2.5"/><path class="cls-1" d="M322.46,172.76a9.73,9.73,0,0,1,1.86-1.28c5.27-2.84,6.08-2.89,9.61-4.85"/><path class="cls-1" d="M320,170.71a7.81,7.81,0,0,1,2.83-2.41c4.29-2.2,5-1.77,8.63-3.59"/><path class="cls-1" d="M305.15,178.12a9.41,9.41,0,0,1,4-2c5.82-1.42,6.81-1,10.72-2"/><path class="cls-1" d="M303.54,177.16a9.41,9.41,0,0,1,5.52-3.59c5.83-1.39,5.21-.19,9.18-1"/><path class="cls-1" d="M287.37,185.4c.52-.9,2-2.68,5.52-3.36,5.89-1.13,6.86-.64,10.81-1.45"/><path class="cls-1" d="M287.07,183a9.19,9.19,0,0,1,5.82-3.49c5.89-1.1,5.21.06,9.23-.58"/><path class="cls-1" d="M268.05,189c.57-.75,2.28-2.44,6.11-2.54,6-.15,6.87.5,10.9.35"/><path class="cls-1" d="M268.26,186.4a9.26,9.26,0,0,1,6.32-2.48c6-.12,5.13.92,9.2,1"/><path class="cls-1" d="M225.81,195.68a13.1,13.1,0,0,1-.54-2.88,8.22,8.22,0,0,1,.34-3.46c.07-.31.24-1.49.36-1.78.24-.58.94-.88,1.25-1.53.89-1.86,3.58-2.91,6.62-3.08,4.09-.24,10.88,4,12.27,5.78a5.27,5.27,0,0,1,0,6.64C243.71,198.53,227.26,198.49,225.81,195.68Z"/><path class="cls-1" d="M226.92,191.76s1.7-2.61,6.62-2.22c6,.48,6.78,1.21,10.8,1.48"/><path class="cls-1" d="M227.68,188.87a9.22,9.22,0,0,1,6.55-1.81c6,.51,5,1.45,9,1.9"/><path class="cls-1" d="M247.86,191.18s1.6-2.67,6.53-2.46c6,.26,6.82,1,10.85,1.1"/><path class="cls-1" d="M248.51,188.26a9.25,9.25,0,0,1,6.48-2c6,.3,5.06,1.28,9.11,1.58"/><path class="cls-1" d="M91,118.88a12.16,12.16,0,0,0-.51,7.54"/><path class="cls-1" d="M93.75,119.19a20.67,20.67,0,0,0-.48,7"/><path class="cls-1" d="M354.59,150.34c-1.38,2-3.84,2.68-5.59,5.37"/><path class="cls-1" d="M351.8,148.31a24.38,24.38,0,0,0-4.69,5.69"/><path class="cls-1" d="M225.27,192.8a8.22,8.22,0,0,1,.34-3.46c0-.11.06-.35.11-.61l-.2-.28c-1.39-1.77-8.18-6-12.27-5.78-3,.17-5.73,1.22-6.62,3.08-.31.65-1,.95-1.26,1.53-.11.29-.29,1.47-.35,1.78a8.22,8.22,0,0,0-.34,3.46,12.54,12.54,0,0,0,.54,2.88c1.45,2.81,17.9,2.85,20.3-.31l.07-.11C225.45,194.35,225.42,193.6,225.27,192.8Z"/><path class="cls-1" d="M204.68,192.52a8.22,8.22,0,0,1,.34-3.46,3,3,0,0,0,.06-.35c-1.9-2.18-8.21-6.58-12-6.75-3-.15-5.82.63-6.9,2.38-.38.61-1.1.85-1.41,1.4a16.51,16.51,0,0,0-.53,1.73,8.22,8.22,0,0,0-.7,3.41,12.35,12.35,0,0,0,.25,2.92c1.15,2.94,18.29,4.92,21,2a5.65,5.65,0,0,0,.4-.48A14,14,0,0,1,204.68,192.52Z"/><path class="cls-1" d="M183.56,190.88a8.22,8.22,0,0,1,.7-3.41c.07-.22.25-.93.4-1.38-1.82-2.38-7.61-7.14-11.29-7.62-3-.4-5.85.14-7.08,1.8-.42.57-1.16.74-1.51,1.27-.17.26-.56,1.39-.68,1.68a8.19,8.19,0,0,0-1,3.34,12.85,12.85,0,0,0,0,2.92c.89,3,17.27,6.34,20.59,3.9C183.57,192.68,183.65,191.82,183.56,190.88Z"/><path class="cls-1" d="M163.12,189.48a12.85,12.85,0,0,1,0-2.92,8.19,8.19,0,0,1,1-3.34c.12-.29.51-1.42.68-1.68l.11-.12c-2.08-2.68-6.79-7-10.07-7.72-3-.64-5.84-.33-7.2,1.22-.47.54-1.22.65-1.61,1.15a17.48,17.48,0,0,0-.81,1.62,8.13,8.13,0,0,0-1.25,3.24,12.35,12.35,0,0,0-.24,2.92c.61,2.88,15,7.21,19.51,5.86A1.15,1.15,0,0,1,163.12,189.48Z"/><path class="cls-1" d="M143.71,183.85a12.35,12.35,0,0,1,.24-2.92,8.13,8.13,0,0,1,1.25-3.24,17.48,17.48,0,0,1,.81-1.62c.35-.45,1-.6,1.47-1-2.25-2.69-6.54-6.49-9.6-7.15s-5.85-.33-7.2,1.22c-.47.54-1.22.65-1.62,1.15-.19.24-.66,1.33-.81,1.62a8.12,8.12,0,0,0-1.24,3.24,12.27,12.27,0,0,0-.24,2.92c.52,2.47,11.16,6,17,6.11A1.21,1.21,0,0,1,143.71,183.85Z"/><path class="cls-1" d="M126.77,178a12.27,12.27,0,0,1,.24-2.92,8.12,8.12,0,0,1,1.24-3.24c.15-.29.62-1.38.81-1.62.4-.5,1.15-.61,1.62-1.15a4.12,4.12,0,0,1,1.83-1.14c-1.86-2.46-4.26-4.94-6.31-5.76-2.83-1.13-5.71-1.31-7.31,0-.55.45-1.31.44-1.78.86a17.68,17.68,0,0,0-1.07,1.46c-.69.95-2.17,1.06-2.5,2.37a12.8,12.8,0,0,0,0,3.45c.08,2.23,7.78,6.59,13.57,8.34A1.49,1.49,0,0,1,126.77,178Z"/><path class="cls-1" d="M113.54,170.34a12.8,12.8,0,0,1,0-3.45c.33-1.31,1.81-1.42,2.5-2.37a17.68,17.68,0,0,1,1.07-1.46c.47-.42,1.23-.41,1.78-.86a3.81,3.81,0,0,1,1.33-.68c-1.19-3.32-2.88-6.82-4.65-8.11-1-.7-1.95.64-2.93.27a5.4,5.4,0,0,0-4.15-.19c-.65.31-1.38.1-1.94.4-.27.14-1.15,1-1.4,1.15-.9.74-2.36.48-3,1.68a9.76,9.76,0,0,0-.3,5.19c.88,2.65,9.49,10.2,14.17,11.34C114.53,172.16,113.57,171.12,113.54,170.34Z"/><path class="cls-1" d="M101.84,161.91a9.76,9.76,0,0,1,.3-5.19c.65-1.2,2.11-.94,3-1.68.25-.2,1.13-1,1.4-1.15.56-.3,1.29-.09,1.94-.4a4.24,4.24,0,0,1,2.32-.28c-1.19-3.32-2.88-6.81-4.65-8.1-1-.69-2,.65-2.92.27a5.44,5.44,0,0,0-4.15-.18c-.65.3-1.38.1-1.94.39a15.26,15.26,0,0,0-1.4,1.15c-.9.75-2.37.49-3,1.68a9.79,9.79,0,0,0-.29,5.2c.65,2,5.59,6.66,10,9.4A4.67,4.67,0,0,1,101.84,161.91Z"/><path class="cls-1" d="M92.73,148.42c.65-1.19,2.12-.93,3-1.68a15.26,15.26,0,0,1,1.4-1.15c.56-.29,1.29-.09,1.94-.39a5.44,5.44,0,0,1,4.15.18.5.5,0,0,0,.13,0c-.22-3.67-.9-7.79-2.69-9.29-.91-.76-2,.51-2.94.07a5.38,5.38,0,0,0-4.13-.47c-.67.25-1.38,0-2,.26A14.63,14.63,0,0,0,90.18,137c-1,.68-2.4.32-3.13,1.47a9.81,9.81,0,0,0-.65,5.16,26.19,26.19,0,0,0,6,9.93A9.78,9.78,0,0,1,92.73,148.42Z"/><path class="cls-1" d="M87.05,138.5c.73-1.15,2.17-.79,3.13-1.47A14.63,14.63,0,0,1,91.65,136c.58-.26,1.29,0,2-.26a5.38,5.38,0,0,1,4.13.47c.7.32,1.49-.3,2.21-.32-.16-3.55-.76-7.4-2.44-8.89-.89-.78-2,.47-2.94,0a5.39,5.39,0,0,0-4.11-.56c-.68.24-1.39,0-2,.21a14.58,14.58,0,0,0-1.5,1c-1,.66-2.4.27-3.16,1.4a9.74,9.74,0,0,0-.78,5.14,25.43,25.43,0,0,0,3.32,6.95A7.45,7.45,0,0,1,87.05,138.5Z"/><path class="cls-1" d="M87,127.64a14.58,14.58,0,0,1,1.5-1c.58-.24,1.29,0,2-.21a5.39,5.39,0,0,1,4.11.56c.93.47,2.05-.78,2.94,0a4.68,4.68,0,0,1,1.07,1.52,46.89,46.89,0,0,0,.9-7.29,2.66,2.66,0,0,0-2.37-3c-1.14-.15-.78-.57-1.52-1s-2.45-.35-4.1-.49-1.46.42-2.56.44-1.74.76-2.94.83-1.84,1-2,3.76a31.55,31.55,0,0,0,.86,6.55A8,8,0,0,0,87,127.64Z"/><path class="cls-1" d="M101.23,109.18c-1.21-.47-.94-1-2.34-1.34s-.9.47-2.28,0a11.64,11.64,0,0,0-4.26-1.07c-1.84,0-2.3.87-3.38,1.07s-1.48,1.87-2.1,4.49a18.59,18.59,0,0,0-.17,5.52,7.93,7.93,0,0,1,2.23-.7c1.1,0,.9-.58,2.56-.44s3.37.07,4.1.49.38.85,1.52,1a2.66,2.66,0,0,1,2.1,1.48,10.61,10.61,0,0,0,2-2.46C102.23,115.35,102.44,109.65,101.23,109.18Z"/><path class="cls-1" d="M107.16,101.26c-.77-1.05-.77-.63-1.53-.77s-.7-.91-1.12-1.33a9.2,9.2,0,0,0-2.89-.91c-.86-.21-1.44.14-2.49-.28s-1.33.77-2.51.63-3,1.47-3.84,3.14a15.58,15.58,0,0,0-.94,5.06c.16,0,.32,0,.51,0a11.64,11.64,0,0,1,4.26,1.07c1.38.47.87-.33,2.28,0s1.13.87,2.34,1.34c.52.2.78,1.38.82,2.8a29.06,29.06,0,0,0,4.76-3.6C108.77,106.56,107.93,102.3,107.16,101.26Z"/><path class="cls-1" d="M115.43,92.7c-.77-1-.77-.63-1.54-.77s-.7-.91-1.12-1.33a9.11,9.11,0,0,0-2.89-.91c-.86-.21-1.44.14-2.48-.28s-1.33.77-2.52.63-3,1.47-3.84,3.15a15.15,15.15,0,0,0-.93,5,7,7,0,0,1,1.51.06,9.2,9.2,0,0,1,2.89.91c.42.42.35,1.19,1.12,1.33s.76-.28,1.53.77a7,7,0,0,1,.85,3.31,25,25,0,0,0,7.07-4.75C117,98,116.19,93.74,115.43,92.7Z"/><path class="cls-1" d="M126.6,86.52c-.5-1.19-.6-.79-1.31-1.1s-.47-1-.78-1.55a9.2,9.2,0,0,0-2.6-1.56c-.79-.4-1.43-.2-2.35-.85s-1.47.44-2.6,0-3.26.73-4.46,2.16c-1,1.24-2,4.15-2.49,6.07a8.53,8.53,0,0,1,2.76.88c.42.42.35,1.19,1.12,1.33s.77-.28,1.54.77a7.3,7.3,0,0,1,.85,3.69,24.68,24.68,0,0,0,8.33-3C126.93,92.06,127.11,87.72,126.6,86.52Z"/><path class="cls-1" d="M138.69,80.84a7.52,7.52,0,0,0-1.54-2.78,14.28,14.28,0,0,0-.94-1.36c-.42-.4-1.11-.4-1.6-.83-1.43-1.23-4.06-1.15-6.67-.19-2.38.87-5,3.91-6.69,6.4a3.26,3.26,0,0,1,.66.23,9.2,9.2,0,0,1,2.6,1.56c.31.5.06,1.23.78,1.55s.81-.09,1.31,1.1a7.45,7.45,0,0,1-.08,4c5.21-1.18,12.61-4.94,12.76-7A11.65,11.65,0,0,0,138.69,80.84Z"/><path class="cls-1" d="M154.91,75.35a7.46,7.46,0,0,0-1.11-3c-.13-.26-.56-1.27-.73-1.49-.35-.46-1-.56-1.47-1.06-1.22-1.43-3.84-1.73-6.56-1.17-3.52.72-8.26,5.67-9.35,7.74a1.42,1.42,0,0,1,.52.3,14.28,14.28,0,0,1,.94,1.36,7.52,7.52,0,0,1,1.54,2.78,20.84,20.84,0,0,1,.56,2.29c5,.39,15.33-2.74,15.85-5.11A11.43,11.43,0,0,0,154.91,75.35Z"/><path class="cls-1" d="M171.52,71.36a7.53,7.53,0,0,0-.88-3c-.11-.27-.46-1.3-.61-1.53-.32-.49-1-.65-1.38-1.18-1.11-1.51-3.7-2-6.46-1.67-3.33.42-8,4.43-9.62,6.57a1.61,1.61,0,0,1,.5.39c.17.22.6,1.23.73,1.49a7.46,7.46,0,0,1,1.11,3,14.46,14.46,0,0,1,.21,2.53c4.83.87,15.67-1.48,16.39-3.84A11.84,11.84,0,0,0,171.52,71.36Z"/><path class="cls-1" d="M190,68a7.51,7.51,0,0,0-.71-3.09,15.22,15.22,0,0,0-.53-1.57c-.29-.5-.95-.7-1.31-1.25-1-1.58-3.58-2.23-6.35-2-3.73.26-9.4,4.88-10.45,6.65a4.65,4.65,0,0,0-.35.71c.14.36.29.78.35.93a7.53,7.53,0,0,1,.88,3c0,.53,0,1,.07,1.48,3,2.34,17.26.45,18.23-2.21A11.24,11.24,0,0,0,190,68Z"/><path class="cls-1" d="M208.37,65.62a7.54,7.54,0,0,0-.71-3.09,15.2,15.2,0,0,0-.52-1.57c-.29-.5-1-.7-1.31-1.25-1-1.58-3.58-2.23-6.35-2-3.68.25-9.22,4.73-10.4,6.56.09.27.16.51.2.63A7.51,7.51,0,0,1,190,68a19.34,19.34,0,0,1-.12,2.45c2.74,2.48,17.36.57,18.34-2.12A11.82,11.82,0,0,0,208.37,65.62Z"/><path class="cls-1" d="M266.92,187.47c-1.45-1.73-8.39-5.73-12.47-5.35-3,.28-5.67,1.43-6.5,3.32-.29.66-1,1-1.2,1.58a16.94,16.94,0,0,0-.29,1.78c0,.12,0,.24-.06.36a5.14,5.14,0,0,1,.25,5.35,2.67,2.67,0,0,0,.24.62c1.55,2.76,18,2.21,20.27-1A5.26,5.26,0,0,0,266.92,187.47Z"/><path class="cls-1" d="M286.57,184.35c-1.56-1.62-8.76-5.13-12.8-4.48-3,.49-5.57,1.82-6.26,3.76-.25.67-.91,1.05-1.09,1.65a13.54,13.54,0,0,0-.15,1.56,5,5,0,0,1,.65.63,5.24,5.24,0,0,1,.5,6.21c2.8,2.19,17.88.52,19.84-2.73A5.26,5.26,0,0,0,286.57,184.35Z"/><path class="cls-1" d="M304.79,177.91c-1.81-1.34-9.49-3.62-13.37-2.31-2.88,1-5.19,2.71-5.56,4.74-.13.7-.71,1.18-.8,1.81a7.41,7.41,0,0,0,.07,1.11,8.53,8.53,0,0,1,1.44,1.09,5.24,5.24,0,0,1,1,6c3.42,1.49,17.59-2.57,19-6A5.27,5.27,0,0,0,304.79,177.91Z"/><path class="cls-1" d="M320.86,171.43c-1.87-1.25-9.65-3.14-13.46-1.64-2.83,1.12-5,3-5.32,5-.08.63-.52,1.1-.65,1.64a13.52,13.52,0,0,1,3.36,1.47,5.27,5.27,0,0,1,1.77,6.4,2.92,2.92,0,0,1-.5.76c4.92.28,15.37-2.79,16.89-7.34A5.29,5.29,0,0,0,320.86,171.43Z"/><path class="cls-1" d="M333.75,163.25c-2.13-.74-10-1.27-13.33,1.15a10.21,10.21,0,0,0-3.89,5.51,15.43,15.43,0,0,1,4.33,1.52,5.29,5.29,0,0,1,2.09,6.3,6.09,6.09,0,0,1-1.91,2.56c3.67.62,15.95-6,16.31-11.47A5.27,5.27,0,0,0,333.75,163.25Z"/><path class="cls-1" d="M344.7,155.14c-2.18-.55-9.27-1.68-12.36,1a5.77,5.77,0,0,0-2.11,6.06,1.68,1.68,0,0,1,0,.5,15.06,15.06,0,0,1,3.49.55,5.27,5.27,0,0,1,3.6,5.57,4.33,4.33,0,0,1-.27,1.23c3.57.23,10.32-2.89,11.16-8A6.13,6.13,0,0,0,344.7,155.14Z"/><path class="cls-1" d="M355.53,149c-.58,0-1.08-.65-1.59-1.94s-3.48-1-5.59-1a8,8,0,0,0-5.51,1.6c-2,1.45-1.89,6.7-1.89,6.7v.11a26,26,0,0,1,3.75.6,6,6,0,0,1,3.63,6h0c7.6-.07,8.79-6.9,8.72-9S356.11,149,355.53,149Z"/><path class="cls-1" d="M363.36,140.32c-.55-1.09-2.49-1.4-3.19-1.48s-1.25-1.24-1.94-1.86-2-.08-4.05,0-3.65.38-5.18,3a11.41,11.41,0,0,0-1.42,6.21h.77c2.11,0,5.08-.34,5.59,1s1,1.94,1.59,1.94,1.45,1,1.53,3.12a7.76,7.76,0,0,1-.07,1.19c2.77-1.5,4.55-4.5,5.9-5.71C365.15,145.61,363.9,141.41,363.36,140.32Z"/><path class="cls-1" d="M366.35,129.55c-.77-1-2.73-.82-3.43-.74s-2-1-2.93-1a7.91,7.91,0,0,0-3.32.51c-2,.54-4.12.24-4.31,3.77a41.54,41.54,0,0,0-.12,5.14,8.44,8.44,0,0,1,1.94-.24c2.1-.08,3.35-.63,4.05,0s1.24,1.78,1.94,1.86,2.64.39,3.19,1.48a9.5,9.5,0,0,1,.68,2.27c1.68-2,2.59-4.57,3.47-5.81C369.26,134.31,367.12,130.49,366.35,129.55Z"/><path class="cls-1" d="M365.74,119.12c-.77-.89-2.84-.26-3.53,0s-1.11-.09-2.46-.46-3,.37-5.16.74-2.06,3.76-2,7.31a5.79,5.79,0,0,0,.83,2.63c.83-.68,2-.71,3.23-1a7.91,7.91,0,0,1,3.32-.51c.94,0,2.23,1.09,2.93,1s2.66-.21,3.43.74a7.49,7.49,0,0,1,.78,1.22,26,26,0,0,0,1.05-6.72C368.51,121.23,366.51,120,365.74,119.12Z"/><path class="cls-1" d="M354.59,119.4c2.13-.37,3.82-1.11,5.16-.74s1.77.72,2.46.46a5.36,5.36,0,0,1,3-.33,20.2,20.2,0,0,0-.17-7.25c-.66-2.06-3.06-2.06-3.8-2s-2.06-.33-4.16-.47-2.6,1.46-4.48,1.38-4.31,1.48-2,7.75a9.37,9.37,0,0,0,2.23,3.46C353.06,120.44,353.58,119.57,354.59,119.4Z"/><path class="cls-1" d="M352.58,110.47c1.88.08,2.38-1.52,4.48-1.38,1.35.09,2.37.29,3.13.4a15.83,15.83,0,0,0,.21-5.88c-.4-2.35-3.16-2.91-4.52-2.82s-1.73-1.4-4.08-1.49-3.56,1.4-5.34,2.43-2.61,3.16-1.55,6.57c.55,1.79,2.53,3.47,4.82,4.57A2.67,2.67,0,0,1,352.58,110.47Z"/><path class="cls-1" d="M346.46,101.73c1.78-1,3-2.53,5.34-2.43a4.1,4.1,0,0,1,1.13.19,6.8,6.8,0,0,0-1.76-6.28c-2.4-2.35-8.41-2.52-10.36-2a5.79,5.79,0,0,0-4.11,4.86c-.38,3.06,4.69,7.7,7.76,9.14A4.05,4.05,0,0,1,346.46,101.73Z"/><path class="cls-1" d="M336.7,96.06a5.79,5.79,0,0,1,4.11-4.86,12.28,12.28,0,0,1,3.25-.21c0-.54-.28-1-.22-1.66.18-1.87-1.28-3.78-3.4-5.11-2.84-1.79-9.62-1-11.4,0a5.41,5.41,0,0,0-3,5.43c.28,3.06,7.06,6.31,10.6,7A3.47,3.47,0,0,1,336.7,96.06Z"/><path class="cls-1" d="M326.09,89.6a5.41,5.41,0,0,1,3-5.43,7.92,7.92,0,0,1,1.89-.58,2.44,2.44,0,0,1-.17-.9c.09-1.88-1.61-3.9-4-5.36-3.18-2-10.48-1.51-12.36-.69A4.79,4.79,0,0,0,311.53,82c.54,3.58,10.49,7.91,13.38,7.91.3,0,.74,0,1.23,0C326.13,89.76,326.1,89.68,326.09,89.6Z"/><path class="cls-1" d="M311.53,82a4.79,4.79,0,0,1,2.89-5.33,8.75,8.75,0,0,1,2.13-.49c-.11-1.86-1.94-3.71-4.39-5-3.34-1.7-10.57-.65-12.39.32a4.8,4.8,0,0,0-2.44,5.55c.83,3.5,12.55,7.31,15.51,7.08A4.17,4.17,0,0,1,311.53,82Z"/><path class="cls-1" d="M297.33,77.06a4.8,4.8,0,0,1,2.44-5.55l.17-.07a10,10,0,0,0,0-1.11c-.11-.57-.68-1-.83-1.61-.45-1.82-2.65-3.27-5.34-4-3.61-1-10.48,1.53-12,2.85a4.79,4.79,0,0,0-1.26,5.93c1.42,3,13.93,5.84,17.38,4.55A2.61,2.61,0,0,1,297.33,77.06Z"/><path class="cls-1" d="M280.46,73.5a4.79,4.79,0,0,1,1.26-5.93A7.15,7.15,0,0,1,283,66.8a.72.72,0,0,0,0-.17c-.13-.56-.71-.94-.89-1.57-.53-1.81-2.78-3.17-5.49-3.79-3.65-.83-10.41,2-11.93,3.34a4.79,4.79,0,0,0-1,6c1.54,3,14.28,5.3,17.59,3.82A2.94,2.94,0,0,1,280.46,73.5Z"/><path class="cls-1" d="M264,65.26c0-.31-.09-.63-.13-1s-.12-1.38-.21-1.64c-.18-.55-.79-.87-1-1.48-.69-1.75-3.07-2.89-5.83-3.24-3.71-.48-10.17,2.94-11.55,4.46a4.81,4.81,0,0,0-.44,6.05c2,3,17,4.08,18.47,1.61,0,0,0-.06,0-.09A4.63,4.63,0,0,1,264,65.26Z"/><path class="cls-1" d="M244.65,63.28c-.06-.27-.13-.55-.18-.83s-.21-1.36-.32-1.62c-.23-.53-.86-.81-1.15-1.4-.81-1.7-3.27-2.66-6-2.82-3.74-.21-9.94,3.67-11.21,5.29a4.81,4.81,0,0,0,0,6.06c2.19,2.89,17.21,2.85,18.54.28a3.53,3.53,0,0,0,.17-.49A4.6,4.6,0,0,1,244.65,63.28Z"/><path class="cls-1" d="M225.36,62.48v0a14.5,14.5,0,0,0-.32-1.62c-.22-.53-.86-.81-1.14-1.4-.82-1.7-3.27-2.66-6-2.82-3.3-.19-8.54,2.83-10.58,4.65.15.41.33,1.06.4,1.27a7.54,7.54,0,0,1,.71,3.09,11.82,11.82,0,0,1-.16,2.67,1.5,1.5,0,0,1-.38.53c4.21,2,16.17,1.7,17.34-.58a3,3,0,0,0,.24-.79A4.67,4.67,0,0,1,225.36,62.48Z"/><path class="cls-1" d="M103.58,290.51s4.27,5.39,10.59,7.32"/><path class="cls-1" d="M106.39,289.05s2.22,2.69,9,7"/><path class="cls-1" d="M359.2,280.12s-.26.08,1.81-2.33a34.25,34.25,0,0,0,3.75-4.61"/><path class="cls-1" d="M366.52,272s1.15-.34,2.5-3.22a27.19,27.19,0,0,0,1.56-5.73"/><path class="cls-1" d="M371.23,260.79a8.56,8.56,0,0,0,1.52-3.1,9.54,9.54,0,0,0,.12-4.93"/><path class="cls-1" d="M372.76,250.05a20.32,20.32,0,0,0,1-3.54,7.53,7.53,0,0,0-.18-4.4"/><path class="cls-1" d="M371.18,239.32s.1-1.24.42-3.11a7.55,7.55,0,0,0-.18-4.41"/><path class="cls-1" d="M370.25,249.48s.38-1.58.7-3.46a7.52,7.52,0,0,0-.18-4.4"/><path class="cls-1" d="M368.44,239a21.73,21.73,0,0,1,.34-2.91,7.55,7.55,0,0,0-.18-4.41"/><path class="cls-1" d="M368.55,259.56a14.36,14.36,0,0,0,.91-3.29,26.33,26.33,0,0,0,.27-4.67"/><path class="cls-1" d="M364.11,270s.81-.65,2.16-3.53c.88-1.86,1.61-3.28,2.17-4.39"/><path class="cls-1" d="M357,278.26s-.17,0,1.89-2.46a25,25,0,0,1,4.39-4.23"/><path class="cls-1" d="M116.23,299.25s.88,1.23,5.11,3.79c5.12,3.1,4.19,1.72,7.67,3.77"/><path class="cls-1" d="M118.38,297.09s2.14,1.11,5.63,3.25c5.11,3.13,2.76,1.65,6.17,3.86"/><path class="cls-1" d="M130.48,307.82s2.3-.43,7,1.22c5.65,2,4.94,2.52,8.76,3.82"/><path class="cls-1" d="M132,305.22a16.77,16.77,0,0,1,6.25,1.2c5.64,2,5.26,2.57,9.05,4"/><path class="cls-1" d="M147.58,314.26a23.42,23.42,0,0,1,7.57,1.25c5.73,1.74,4.62,2.18,8.5,3.31"/><path class="cls-1" d="M148.65,312.1a11.39,11.39,0,0,1,6.67.23c5.72,1.78,5.36,2.73,9.21,4"/><path class="cls-1" d="M165.33,319.23s2.12-2.28,6.9-1.05c5.8,1.49,6.44,2.76,10.36,3.72"/><path class="cls-1" d="M166.57,316.51a9.2,9.2,0,0,1,6.76-.66c5.79,1.52,4.68,2.28,8.59,3.41"/><path class="cls-1" d="M185.31,323.6s2-2.43,6.82-1.53c5.89,1.08,6.61,2.31,10.59,3"/><path class="cls-1" d="M186.36,320.8a9.23,9.23,0,0,1,6.7-1.13c5.88,1.12,4.83,1.95,8.8,2.82"/><path class="cls-1" d="M206.33,325.07s1.7-2.62,6.62-2.22c6,.47,6.78,1.21,10.8,1.48"/><path class="cls-1" d="M207.09,322.18a9.2,9.2,0,0,1,6.55-1.82c6,.51,5,1.45,9,1.9"/><path class="cls-1" d="M348.6,290s-.24-1.9,2.33-4.34a76.74,76.74,0,0,1,5.9-5.09"/><path class="cls-1" d="M345.57,288a7.38,7.38,0,0,1,2.35-4.07c4-3.27,3.47-2.27,6.22-4.4"/><path class="cls-1" d="M336.19,298.66s-.83-2.13,2.89-4.13c4.52-2.43,4.11-1.94,7.13-3.62"/><path class="cls-1" d="M333.32,296.29s.38-2.26,3.49-3.9c4.53-2.4,3.85-1.52,7-3.06"/><path class="cls-1" d="M225.81,329.26a12.88,12.88,0,0,1-.54-2.87,8.2,8.2,0,0,1,.34-3.46c.07-.32.24-1.5.36-1.78.24-.58.94-.89,1.25-1.54.89-1.85,3.58-2.91,6.62-3.08,4.09-.23,10.88,4,12.27,5.79a5.25,5.25,0,0,1,0,6.63C243.71,332.12,227.26,332.08,225.81,329.26Z"/><path class="cls-1" d="M226.92,325.35s1.7-2.62,6.62-2.22c6,.47,6.78,1.21,10.8,1.48"/><path class="cls-1" d="M227.68,322.46a9.2,9.2,0,0,1,6.55-1.82c6,.51,5,1.45,9,1.9"/><path class="cls-1" d="M322.71,307.9a5.85,5.85,0,0,1,3.55-5.55c4.67-2.12,4.23-1.66,7.35-3.13"/><path class="cls-1" d="M319.94,305.42s1-3.92,4.19-5.35c4.69-2.09,3.95-1.26,7.17-2.58"/><path class="cls-1" d="M266.92,321.05c-1.45-1.72-8.39-5.72-12.47-5.34-3,.28-5.67,1.43-6.5,3.31-.29.66-1,1-1.2,1.58a17.57,17.57,0,0,0-.29,1.79c0,.12,0,.23-.06.35a5.16,5.16,0,0,1,.25,5.36,2.77,2.77,0,0,0,.24.61c1.55,2.77,18,2.22,20.27-1A5.26,5.26,0,0,0,266.92,321.05Z"/><path class="cls-1" d="M247.86,324.76s1.6-2.67,6.53-2.45c6,.26,6.82,1,10.85,1.09"/><path class="cls-1" d="M248.51,321.85A9.25,9.25,0,0,1,255,319.8c6,.3,5.06,1.27,9.11,1.57"/><path class="cls-1" d="M305.78,314.23s.12-3.16,4.66-4.24c5.51-1.32,4.93-.94,8.63-1.87"/><path class="cls-1" d="M303.42,311a8.45,8.45,0,0,1,5.32-3.66c5.52-1.29,4.52-.58,8.29-1.35"/><path class="cls-1" d="M287,318.44a9.69,9.69,0,0,1,4.87-3c5.81-1.44,6.85-.64,10.8-1.45"/><path class="cls-1" d="M286,316.38a9.22,9.22,0,0,1,5.82-3.49c5.89-1.1,5.22.07,9.23-.58"/><path class="cls-1" d="M268.23,322.54s.21-2.61,5.13-3.07c6-.57,6.88,0,10.89-.41"/><path class="cls-1" d="M267.47,319.82a9.2,9.2,0,0,1,6.13-2.92c6-.53,5.18.56,9.24.31"/><path class="cls-1" d="M92.68,281.91s3.75,4.68,7.78,6.8"/><path class="cls-1" d="M85.71,272.38a18.16,18.16,0,0,0,4.81,6.24"/><path class="cls-1" d="M79.68,261.67a18.84,18.84,0,0,0,3.9,6.68"/><path class="cls-1" d="M77.51,250.94s-.6,2.43,1.95,6"/><path class="cls-1" d="M80.68,250.36a20.5,20.5,0,0,0,.95,5.58"/><path class="cls-1" d="M80.15,239.92a13.53,13.53,0,0,0,.48,6"/><path class="cls-1" d="M82.91,229s-.82,2.05-.49,6.44"/><path class="cls-1" d="M80.6,229.51s-.82,2.05-.48,6.44"/><path class="cls-1" d="M77.68,240.32a13.61,13.61,0,0,0,.47,6"/><path class="cls-1" d="M82.85,260.83s1,2.34,3.13,6.68"/><path class="cls-1" d="M88.44,271.47a43.88,43.88,0,0,0,3.9,6"/><path class="cls-1" d="M95.8,280.4a33.15,33.15,0,0,0,6.74,6.8"/><path class="cls-1" d="M225.27,326.39a8.2,8.2,0,0,1,.34-3.46c0-.12.06-.35.11-.61l-.2-.28c-1.39-1.78-8.18-6-12.27-5.79-3,.17-5.73,1.23-6.62,3.08-.31.65-1,1-1.26,1.54-.11.28-.29,1.46-.35,1.78a8.2,8.2,0,0,0-.34,3.46,12.34,12.34,0,0,0,.54,2.87c1.45,2.82,17.9,2.86,20.3-.31a.61.61,0,0,1,.07-.1C225.45,327.94,225.42,327.18,225.27,326.39Z"/><path class="cls-1" d="M204.68,326.11a8.2,8.2,0,0,1,.34-3.46,3.48,3.48,0,0,0,.06-.35c-1.9-2.18-8.21-6.59-12-6.76-3-.14-5.82.63-6.9,2.39-.38.61-1.1.84-1.41,1.4a15.81,15.81,0,0,0-.53,1.73,8.17,8.17,0,0,0-.7,3.4,12.35,12.35,0,0,0,.25,2.92c1.15,2.95,18.29,4.93,21,2a5.65,5.65,0,0,0,.4-.48A14.12,14.12,0,0,1,204.68,326.11Z"/><path class="cls-1" d="M183.56,324.46a8.17,8.17,0,0,1,.7-3.4,15.81,15.81,0,0,1,.53-1.73,1.43,1.43,0,0,1,.19-.24c-1.93-2.37-7.69-6.94-11.33-7.36-3-.35-5.85.23-7.05,1.9-.42.59-1.16.77-1.5,1.3-.16.26-.54,1.4-.65,1.69a8.3,8.3,0,0,0-.93,3.35,12.05,12.05,0,0,0,0,2.93c.88,2.83,15.85,5.79,20.1,3.91C183.57,326.14,183.64,325.33,183.56,324.46Z"/><path class="cls-1" d="M163.57,322.9a12.05,12.05,0,0,1,0-2.93,8.3,8.3,0,0,1,.93-3.35c.11-.29.49-1.43.65-1.69a2.73,2.73,0,0,1,.79-.67c-2.39-2.57-6.88-6.13-10-6.63s-5.85,0-7.12,1.6c-.45.56-1.19.71-1.56,1.23-.17.25-.59,1.37-.72,1.66a8.34,8.34,0,0,0-1.08,3.31,12.84,12.84,0,0,0-.08,2.92c.7,2.62,13.09,5.85,18.55,5.11A1.44,1.44,0,0,1,163.57,322.9Z"/><path class="cls-1" d="M139.43,301.08c-3-.62-5.85-.29-7.19,1.28-.47.54-1.22.66-1.61,1.16a17.34,17.34,0,0,0-.79,1.62,8.25,8.25,0,0,0-1.22,3.26,12.71,12.71,0,0,0-.22,2.92c.54,2.44,11,5.83,16.91,6,0-.56.13-1.18.14-1.85a8.34,8.34,0,0,1,1.08-3.31c.13-.29.55-1.41.72-1.66.37-.52,1.11-.67,1.56-1.23a3,3,0,0,1,.66-.63C147.33,305.92,142.67,301.74,139.43,301.08Z"/><path class="cls-1" d="M128.62,308.4a8.25,8.25,0,0,1,1.22-3.26,17.34,17.34,0,0,1,.79-1.62c.39-.5,1.14-.62,1.61-1.16a2.8,2.8,0,0,1,.53-.5c-1.85-2.8-4.56-6-6.88-7-2.79-1.21-5.67-1.47-7.3-.21-.57.44-1.33.4-1.81.81-.23.2-.91,1.18-1.11,1.43a8.31,8.31,0,0,0-1.86,2.94,13.36,13.36,0,0,0-.8,2.81c0,3.39,9.94,7.51,15.36,7.81C128.42,309.85,128.56,309.16,128.62,308.4Z"/><path class="cls-1" d="M113.81,299.85a8.31,8.31,0,0,1,1.86-2.94c.2-.25.88-1.23,1.11-1.43.46-.39,1.15-.39,1.7-.75a31.92,31.92,0,0,0-3.84-7.72c-1.68-2.59-4.69-1.17-4.69-1.17a8.61,8.61,0,0,0-5.52,2.09,4.67,4.67,0,0,0-2.59,2.18c-3.09,2.34-.33,6.43,1.9,8.36,1.64,1.41,6.73,3,9.33,3.75C113.2,301.52,113.56,300.75,113.81,299.85Z"/><path class="cls-1" d="M101.84,290.11a4.67,4.67,0,0,1,2.59-2.18,9.68,9.68,0,0,1,3.4-1.84,32.46,32.46,0,0,0-3.37-7.59c-1.54-2.68-4.62-1.41-4.62-1.41a8.62,8.62,0,0,0-5.62,1.81,4.66,4.66,0,0,0-2.7,2c-3.2,2.18-.66,6.41,1.47,8.44,1.28,1.22,4.83,2.67,7.49,3.64A3.21,3.21,0,0,1,101.84,290.11Z"/><path class="cls-1" d="M91.52,280.94a4.66,4.66,0,0,1,2.7-2,9.18,9.18,0,0,1,4.47-1.82A16.24,16.24,0,0,0,97,269.62c-1.54-2.67-4.62-1.41-4.62-1.41A8.61,8.61,0,0,0,86.79,270a7.84,7.84,0,0,0-3,1.28c-3.21,2.18-.36,7.17,1.78,9.21A16.7,16.7,0,0,0,90.08,283,3.2,3.2,0,0,1,91.52,280.94Z"/><path class="cls-1" d="M83.78,271.3a7.84,7.84,0,0,1,3-1.28,8.65,8.65,0,0,1,5.56-1.81,13.09,13.09,0,0,0,.22-4.6c-.44-3.2-2-4.85-3.12-5.32S88.1,258.07,87,258a18.81,18.81,0,0,0-2.8-.38c-1.52,0-1.75,1.14-3.12,1.06s-1.06.76-3,1.44-1.52,5.69,2,10.4a9,9,0,0,0,2.5,2.34A3.17,3.17,0,0,1,83.78,271.3Z"/><path class="cls-1" d="M78.08,260.12c2-.68,1.67-1.51,3-1.44s1.6-1.06,3.12-1.06A18.81,18.81,0,0,1,87,258c1.07.07,1.35-.17,2.42.29h0c1.09-2.94.19-8.47-.3-9.46s-3.35-.71-4-.86-2,.57-2.86.47a25.8,25.8,0,0,0-3.07-.47c-1,0-2.13,1.16-3.31,1.16s-.78,4.62-.49,6.59a18.09,18.09,0,0,0,2,4.85A1.38,1.38,0,0,1,78.08,260.12Z"/><path class="cls-1" d="M79.27,248a25.8,25.8,0,0,1,3.07.47c.81.1,2.27-.61,2.86-.47a23.15,23.15,0,0,1,3.11.31l.09-.32c1-3.69.74-8.07-.33-8.48s-2.22-1.24-3.27-1.16-.92-.41-2.23-.74-1.49.42-2.89.07-1.39.67-2.77.84-1.83,2.22-1.75,5.82a14.25,14.25,0,0,0,1.08,4.79C77.32,248.94,78.36,248,79.27,248Z"/><path class="cls-1" d="M78.41,237.81a1.49,1.49,0,0,1,1.27-.16c1.4.35,1.58-.4,2.89-.07s1.18.83,2.23.74a6.35,6.35,0,0,1,2.76.94c0-1.75-.18-10.59-.18-10.59s-1.33-1.66-2.17-1.5-1.24.49-1.63.41a3.22,3.22,0,0,0-2,0c-.61.34-1.49-.07-2.17.43s-2.29,1.29-1.61,5.51C78.08,235,78.18,236.49,78.41,237.81Z"/><path class="cls-1" d="M87.39,229h0v0Z"/><path class="cls-1" d="M83.58,227.58c.39.08.78-.24,1.63-.41s2.17,1.5,2.17,1.5l-.24-11s-2.83.15-3.56,2.59-1.07,5.71-.69,7.18Z"/><path class="cls-1" d="M285.59,316.5c-1.67-1.51-9.09-4.52-13.08-3.58-3,.69-5.43,2.2-6,4.18-.2.69-.83,1.11-1,1.73a6.54,6.54,0,0,0,0,1,8.27,8.27,0,0,1,1.41,1.21,5.24,5.24,0,0,1,.48,6.24c3.5,1.68,17.65-1,19.34-4.25A5.26,5.26,0,0,0,285.59,316.5Z"/><path class="cls-1" d="M303.75,311.35c-1.81-1.35-9.48-3.63-13.36-2.32-2.89,1-5.2,2.71-5.57,4.73-.12.68-.65,1.15-.77,1.74a8.05,8.05,0,0,1,1.54,1,5.26,5.26,0,0,1,1.15,6.54,2.67,2.67,0,0,1-.46.6c2.9,1.85,17.82-2.33,19.24-5.9A5.26,5.26,0,0,0,303.75,311.35Z"/><path class="cls-1" d="M319.94,305.42c-1.81-1.27-9.24-3.29-12.84-1.86-2.68,1.06-4.76,2.86-5,4.89-.08.69-.59,1.19-.64,1.8a9.77,9.77,0,0,1,2.27,1.1,5.26,5.26,0,0,1,1.77,6.39,2.71,2.71,0,0,1-.51.77c4.11.72,16-3.48,17-6.79A5.49,5.49,0,0,0,319.94,305.42Z"/><path class="cls-1" d="M333.79,296.48c-1.91-1-9.06-1.75-12,.19-2.18,1.44-3.65,3.49-3.39,5.48.09.7-.28,1.26-.17,1.87a4.9,4.9,0,0,0,.22.67,7.67,7.67,0,0,1,1.47.73,5.53,5.53,0,0,1,2.35,4.8,10.72,10.72,0,0,0,2.75.95c3.86.66,11.83-5.16,12-8.93A6,6,0,0,0,333.79,296.48Z"/><path class="cls-1" d="M346.2,288.17c-2-.82-9.16-1.15-11.94,1-2.07,1.58-3.4,3.73-3,5.7a2.68,2.68,0,0,1,0,.94,10.05,10.05,0,0,1,2.57.69,6,6,0,0,1,3.29,5.76,3.3,3.3,0,0,1-.17.84,8.06,8.06,0,0,0,1.53.32c3.9.41,11.47-5.93,11.43-9.7A5.93,5.93,0,0,0,346.2,288.17Z"/><path class="cls-1" d="M359.88,282.94c-.62-5.15-4.49-5.19-5.31-5.15-3.22.18-7.5.81-9.8,3.46-1.71,2-2.58,4.34-1.8,6.19a.75.75,0,0,1,0,.16,11.37,11.37,0,0,1,3.19.57,5.93,5.93,0,0,1,3.67,5.53,3.37,3.37,0,0,1-.07.62,9.23,9.23,0,0,0,1.95,0C355.65,294,360.33,286.68,359.88,282.94Z"/><path class="cls-1" d="M367.94,273.36c0-1-1.3-1.3-1.83-1.57s-1.65-1.83-2-1.83-1.66-1.74-4.2-1-5.48.35-7.3,2.87c-1.6,2.21-2.49,3.9-2.09,6.51a27.67,27.67,0,0,1,4.05-.51c.82,0,4.69,0,5.31,5.15a4.24,4.24,0,0,1,0,.62c1.78.09,2.13.08,5.34-2S367.94,274.32,367.94,273.36Z"/><path class="cls-1" d="M371.23,260.79c-1.77-.67-1.66-.89-3.25-1.44s-1.18-.55-3.22,0-5.27,1.44-6.38,3.32c-.9,1.52-2.11,4.53-1.13,6.75.89-.15,1.8-.27,2.66-.5,2.54-.7,3.85,1,4.2,1s1.48,1.57,2,1.83,1.83.6,1.83,1.57c0,.11,0,.28,0,.49h0c5.27-.44,5.35-8.63,5.35-10.18S373,261.45,371.23,260.79Z"/><path class="cls-1" d="M373.33,250.27c-3.47-.51-3.62-1.71-7.59-.94s-4.21,3.06-4.35,4.68c-.07.89-1.36,4.11-.77,6.8a21.26,21.26,0,0,1,4.14-1.46c2-.55,1.62-.55,3.22,0s1.48.77,3.25,1.44c1.27.47,1.79.95,2,1.75a6.44,6.44,0,0,0,2.25-3C376.66,256,376.81,250.78,373.33,250.27Z"/><path class="cls-1" d="M374.36,240.14c-3.48-.51-3.63-1.7-7.6-.94s-4.21,3.07-4.35,4.68a16.44,16.44,0,0,0,.48,6.65,6.27,6.27,0,0,1,2.85-1.2c4-.77,4.12.43,7.59.94a2.87,2.87,0,0,1,2,1.14,5.27,5.27,0,0,0,1.2-2C377.68,245.84,377.83,240.65,374.36,240.14Z"/><path class="cls-1" d="M366.76,239.2c3.91-.75,4.12.39,7.44.91a5.11,5.11,0,0,0,.48-1c1.19-3.58,1.34-8.77-2.14-9.28s-2.78-1.05-6.8-.66a2.92,2.92,0,0,0-2.91,3c-.08,1.06-.68,5.7.55,8.76A5.57,5.57,0,0,1,366.76,239.2Z"/><path class="cls-1" d="M362.83,232.15a2.92,2.92,0,0,1,2.91-3,11.11,11.11,0,0,1,3.69,0h0c1.19-3.58,1.34-8.77-2.14-9.28-2.68-.39-1.62-.55-3.42-.54C363.87,219.32,362.81,232.44,362.83,232.15Z"/><path class="cls-1" d="M367.87,147.08c-2.84-.6-3.29,6.63-3.8,9.72-.71,4.22-1.94,8.12-.18,9.36a1.91,1.91,0,0,1,1.07,0,1.33,1.33,0,0,1,.73.46c4.27,0,4.21-3.13,4.66-6.29C371.16,154.55,370,147.52,367.87,147.08Z"/><path class="cls-1" d="M365,166.11c-2.84-.6-3.31,4.08-4.75,6.86-1,2-2.47,7.56-1.51,10.4a3,3,0,0,1,1.13.32,2.59,2.59,0,0,1,1.06,1.61c3.52,1.19,5.67-1.72,6.24-5.87C367.92,173.69,367.09,166.56,365,166.11Z"/><path class="cls-1" d="M359.83,183.69c-3.07-1.52-4.27,2.55-5.71,5.33-1.27,2.44-4.82,6.55-2.88,9.77.1.17.21.32.31.48a3.76,3.76,0,0,1,1.48.42,2.2,2.2,0,0,1,1,1.67c2,.74,4.08-.38,5.26-3.2C362,191.85,361.78,184.66,359.83,183.69Z"/><path class="cls-1" d="M353,199.69c-3.07-1.53-4.09,1.33-6.71,3.15-2,1.37-5.46,4.74-5,7.73a1.82,1.82,0,0,1,.72.76,5.52,5.52,0,0,1,.56,1.61c2.38,2.65,5.55,1.48,8-1.78C354.37,206.24,355,200.66,353,199.69Z"/><path class="cls-1" d="M342,211.33c-1.14-2.31-6-.63-8.65,0a7.75,7.75,0,0,0-5,5.39c1.14.79,1.93,1.73,1.86,2.82a4,4,0,0,1-.47,2c2.57,2.64,7.3,1.41,9.76-1.82C343.25,214.86,343,213.29,342,211.33Z"/><path class="cls-1" d="M323.13,214.5a7.75,7.75,0,0,0-7,2.08c.71,1.43,1,2.84.3,3.83a4.12,4.12,0,0,1-1.46,1.45c1.11,3.3,5.63,4.48,9.25,3,5.7-2.37,5.87-3.07,6-5.25C330.38,217,325.77,215.25,323.13,214.5Z"/><path class="cls-1" d="M313.09,212.34c-1.55-1.71-5.71-3.15-8.59-1.25.12,2.22-.13,4.35-1.88,4.82l-.44.11c.41,2.73,3.15,5.13,6.35,5.66,6.09,1,6.6.5,7.88-1.27C317.91,218.32,314.93,214.38,313.09,212.34Z"/><path class="cls-1" d="M304.1,207.2c-.22-2.43-3-6.35-6.69-6.17-.29,1.44-.9,2.59-2.06,2.95a3.65,3.65,0,0,1-2.35-.06c-1.08,2.41-.29,5.77,1.85,8,4.27,4.46,5.66,4.54,7.77,4C305.47,215.15,304.35,209.94,304.1,207.2Z"/><path class="cls-1" d="M278.23,206.3c-2.91-1-6.4,3.12-8.74,5-1.8,1.46-4.45,5.85-3.71,9.23a3.32,3.32,0,0,1,2.08.62,2.73,2.73,0,0,1,1,3c3.5,1.85,6.47,0,9-6.06C280.36,211.78,281.29,207.35,278.23,206.3Z"/><path class="cls-1" d="M267.86,221.17c-2.45-1.86-7.06.93-9.88,2-2.32.87-6.61,4.6-6.47,8.28a3.09,3.09,0,0,1,1.32,1,2.58,2.58,0,0,1,.35,2.45c2.75,3.06,6.19,2.36,10.56-2.75S270.43,223.13,267.86,221.17Z"/><path class="cls-1" d="M252.83,232.49c-1.79-2.52-7-1.22-10-1.05-2.39.14-7.31,2.26-8.52,5.61a3.1,3.1,0,0,1,.8,1.39,3,3,0,0,1-.49,2.56c1.68,4,5.2,4.43,11,.78S254.7,235.12,252.83,232.49Z"/><path class="cls-1" d="M235.08,238.44c-.75-3-6.1-3.67-9-4.6-2.63-.84-9.39-.44-10.81,3.61a3.2,3.2,0,0,1,.42,1.87,2.53,2.53,0,0,1-.62,1.43c.56,3.3,3.61,3.95,9.9,3.75C231.85,244.27,235.88,241.57,235.08,238.44Z"/><path class="cls-1" d="M209.22,232.12c-2.05-1.64-8.09-3.55-10.83-.61a2.5,2.5,0,0,1-.47,2.39,3.6,3.6,0,0,1-1,.75c-.67,3.37,1.69,5.63,7.65,6.67,6.42,1.12,10.78,1.08,11.14-2S211.48,233.93,209.22,232.12Z"/><path class="cls-1" d="M194.09,224.31c-1.61-2.37-7.71-6.48-11.11-3a1.78,1.78,0,0,1-.87,1.06c-2.21,3.24,0,5.91,4.84,9.41,5.28,3.82,9,4.24,11,2.16C200.06,231.62,195.72,226.71,194.09,224.31Z"/><path class="cls-1" d="M182,222.41a12.83,12.83,0,0,1-9.14-5.34c-3.54-5.06-4.61-8.28-.46-10.53s8.43,3.44,9.15,6.1S184.57,221.32,182,222.41Z"/><path class="cls-1" d="M155.7,204.37a4.75,4.75,0,0,1-1.77-1.27,19.19,19.19,0,0,0-5.79,3.64c-2.25,2-5.07,8.13-.31,10.16s6.1-.35,8.61-4.18c1.88-2.88,2.6-5.66,2-7.61A8.93,8.93,0,0,1,155.7,204.37Z"/><path class="cls-1" d="M145.25,212.75a15.43,15.43,0,0,0-7.65.65c-2.86,1-6.81,3.81-4.27,8.32,1.47,2.6,6.32,3.5,9.94.69,2.13-1.66,3.94-3.66,4.55-5.51A4,4,0,0,1,145.25,212.75Z"/><path class="cls-1" d="M133,216.87a14.58,14.58,0,0,0-7.14-4.35c-2.9-.83-7.77-.73-8.23,4.43-.27,3,3.22,6.47,7.79,6.2,3-.17,6-.94,7.41-2.42A4.53,4.53,0,0,1,133,216.87Z"/><path class="cls-1" d="M119,213.74c-.09-2-1.86-5.34-4.5-7.76-2.22-2-6.61-4.14-9.34.26-1.58,2.54,0,7.23,4.17,9,3.23,1.4,6.71,2,8.53.73A4.91,4.91,0,0,1,119,213.74Z"/><path class="cls-1" d="M107.58,204c.06-1.76-1.4-4.53-2.66-7.75-1.78-4.55-5.62-8.1-8.91-4.88-2.14,2.09-1.47,5.88,2.62,10,2.19,2.2,4.88,4.25,6.78,4.46A5.15,5.15,0,0,1,107.58,204Z"/><path class="cls-1" d="M96,191.37a4,4,0,0,1,2.27-1.19c-.19-1.69-.81-3.88-1.14-6.17-.7-4.83-3.63-9.17-7.57-6.78-2.56,1.55-2.77,5.39.28,10.32,1.56,2.51,3.39,4.73,5.15,5.51A3.78,3.78,0,0,1,96,191.37Z"/><path class="cls-1" d="M89.53,177.26l0,0a3.88,3.88,0,0,1,2.85-.6c.87-1.64.58-4.79.08-8.14-.73-4.83-1-9-5.77-8.64-3,.21-4.26,5.48-1.64,10.65C86.19,172.67,87.82,176,89.53,177.26Z"/><path class="cls-1" d="M163.65,190.22a2.16,2.16,0,0,1-.43-.51,10.63,10.63,0,0,1-3.49.2,19,19,0,0,0-4.65,4.1c-1.79,2.43-4.14,8.33.62,10.36s7.17-.12,8.16-4.59c.1-.48.21-.95.31-1.42C162.63,194.74,162.06,192,163.65,190.22Z"/><path class="cls-1" d="M173,193.56c-4.05-.75-7.95-2-9.36-3.34-1.8,2-.82,5.31,1.22,9.68a12.87,12.87,0,0,0,7.48,6.66l0,0a4.14,4.14,0,0,1,1.57-.49c1.36-1.85.45-6.7.24-9A10.52,10.52,0,0,0,173,193.56Z"/><path class="cls-1" d="M89.38,149.78a24.39,24.39,0,0,1-3-6.12,8,8,0,0,1,0-2.49,4.72,4.72,0,0,0-1.45-.1c-3.87.24-4.43,4.91-3.12,10.56.55,2.39,1.56,7.11,3.32,9a2.54,2.54,0,0,1,1.62-.76,5.84,5.84,0,0,1,1.78.12c1.09-2.16,1.18-6.32.93-9.3Z"/><path class="cls-1" d="M277.68,194.35c-.23.35-.45.68-.67,1-1.55,2.1-3.22,8.06-.54,10.94a3.1,3.1,0,0,1,1.76,0,2.58,2.58,0,0,1,1.67,1.64c3.67.71,6-1.81,6.86-8.17a28,28,0,0,0,.22-8.46C285.63,192.75,281.71,193.84,277.68,194.35Z"/><path class="cls-1" d="M296,189.7c-3.54.91-7,1.28-8.42.65a.3.3,0,0,1,0-.1,6.81,6.81,0,0,1-.37.7,2,2,0,0,1-.29.37,20,20,0,0,1,.12,5.42c.06.13.11.26.18.4,2.61,5.6,5.56,7.64,8.08,6.84,3.06-1,2.28-7.41,2-10.14A11.23,11.23,0,0,0,296,189.7Z"/></svg>