<svg id="cream1_top_line" xmlns="http://www.w3.org/2000/svg" viewBox="0 0 450 390"><defs><style>.cls-1,.cls-2{fill:none;stroke:#000;stroke-linecap:round;}.cls-1{stroke-linejoin:round;}.cls-2{stroke-miterlimit:10;}</style></defs><path class="cls-1" d="M275.46,70.91s5.61.25,7.86,0,10.48-.24,14.18,6"/><path class="cls-1" d="M278.19,67.9s9.49.24,11.73,0,6.6-.25,10.3,5.95"/><path class="cls-1" d="M285.17,65.43s4.27-.31,6.51-.55,8.54.45,10.67,6.48"/><path class="cls-1" d="M304.1,77.91c4.26,2.6,10.1,2.56,12.61,4.12,4.18,2.59,3.82,5.32,4.25,5.54"/><path class="cls-1" d="M306.91,75.38c5.37,1.83,9.15,1.66,11.75,3.09,2.81,1.55,5.47,1.82,6,5.71"/><path class="cls-1" d="M311,73.54c5.57,0,8.1.35,10.69,1.78,2.81,1.55,5.22,2.82,5.8,6.71"/><path class="cls-1" d="M90.35,131a35.21,35.21,0,0,0,7.07,11.82"/><path class="cls-1" d="M95.21,129.22s3.15,9.13,5.4,12.5"/><path class="cls-1" d="M100.94,129.22a93.39,93.39,0,0,1,2.84,10.27"/><path class="cls-1" d="M100.61,113.55a71.1,71.1,0,0,1,1,11.48"/><path class="cls-1" d="M111.84,99.71s-3.86,2.72-5.79,9.36"/><path class="cls-1" d="M127.18,86.49S120,88.91,117.05,95"/><path class="cls-1" d="M149.52,77.65a22.08,22.08,0,0,0-15.92,6"/><path class="cls-1" d="M175.89,70.88s-8-2.5-19,4.84"/><path class="cls-1" d="M206.69,67.06a13.07,13.07,0,0,0-7.16-1.73c-3.57,0-7.31,2.69-14.39,4.73"/><path class="cls-1" d="M206.69,63.49a15.39,15.39,0,0,0-8.51-1.79c-3.57.25-7.16,2.37-14,5.43"/><path class="cls-1" d="M205.28,60.16a14.25,14.25,0,0,0-8.46-2c-3.56.24-7.09,2.56-13.1,6.43"/><path class="cls-1" d="M239.09,65.36s-2.72-1.59-7.81-1.57c-3.89,0-8,2.45-15.69,4.31"/><path class="cls-1" d="M269.58,68.51s-1.89-2.36-7.18-3.08c-3.86-.53-8.31,1.32-17.28.51"/><path class="cls-1" d="M271,65.43s-1.9-3.05-7.2-3.77c-3.86-.52-7.58,1.19-16,1.41"/><path class="cls-1" d="M271.38,62.53a12.92,12.92,0,0,0-8-4.2c-3.85-.53-4.37.93-12.2,2.05"/><path class="cls-1" d="M239.09,62.11a19.4,19.4,0,0,0-9.29-1.64c-3.88.23-7.8,2.16-15.27,5"/><path class="cls-1" d="M326.2,88.55S336.25,91.45,338,99"/><path class="cls-1" d="M330.92,86.69s8.88,1.28,11.84,9.82"/><path class="cls-1" d="M335.91,85.57s9.6.35,10.86,9.86"/><path class="cls-2" d="M342.44,102.2s4.17,2.41,6.55,11"/><path class="cls-2" d="M348.83,100.7s3,2.06,4.71,11.58"/><path class="cls-2" d="M355.42,101.19s2,1.91,2,11.17"/><path class="cls-1" d="M237.55,59.07s-2.28-2.17-7.78-1.85c-3.89.23-9.33,2.93-15.72,5.89"/><path class="cls-2" d="M348,116.72A34.47,34.47,0,0,1,353.31,128"/><path class="cls-2" d="M354.46,115.87s2.83,2.94,3.32,13.75"/><path class="cls-2" d="M361,117s1.86,3.62.84,13.83"/><path class="cls-1" d="M174.52,67.2s-8.54-3.46-19,5.7"/><path class="cls-1" d="M173,64.17s-7.44-3.63-18.14,5.89"/><path class="cls-1" d="M140.24,71.26s-4.35.28-12.22,8.92"/><path class="cls-1" d="M145.92,72.9s-9.38,1.69-15.48,9.4"/><path class="cls-1" d="M121.73,83.68a26.84,26.84,0,0,0-8.62,9.74"/><path class="cls-1" d="M115.46,83.68s-3.12,2.32-6.11,8.46"/><path class="cls-1" d="M106.84,98.26a18.92,18.92,0,0,0-5.9,9.37"/><path class="cls-1" d="M101.62,97.75s-4,2.44-4.87,9.36"/><path class="cls-1" d="M95.45,113.55a69,69,0,0,0,.91,11.88"/><path class="cls-1" d="M90.35,113.75a47.78,47.78,0,0,0,1.07,12.58"/><path class="cls-1" d="M143.86,173.48s4.18-.69,10.46,2.42c5.6,2.77,1.29.69,10.39,4.36"/><path class="cls-1" d="M147.63,169.26s2.36-.95,8.64,2.16c5.6,2.77,4.86,2.92,10.86,6"/><path class="cls-1" d="M153.63,166.59s2.64-.19,7.89,2.68c3.48,1.91,3.68,2.92,9.15,6.24"/><path class="cls-1" d="M174.69,183s2.57-1.86,10.81-.84c6.2.77,7.7,3.41,19.48,4.87"/><path class="cls-1" d="M175.21,178.9s2.14-2.5,10.38-1.47c6.21.77,8,3.93,19.07,5.9"/><path class="cls-1" d="M178.47,174.43s2.95-2.22,9-.78,6.61,3.21,14.23,5.8"/><path class="cls-1" d="M208.67,195.1c-.63-1.22-.56-3-.92-4.84-.43-2.25.21-3.89.58-5.83a29.27,29.27,0,0,1,.59-3c.42-1,1.59-1.49,2.11-2.58,1.51-3.12,6-4.9,11.14-5.19,6.89-.39,18.31,6.75,20.65,9.74a8.83,8.83,0,0,1,0,11.17C238.8,199.9,211.11,199.84,208.67,195.1Z"/><path class="cls-1" d="M210.53,188.51s2.86-4.4,11.15-3.74c10,.8,11.4,2,18.18,2.49"/><path class="cls-1" d="M211.81,183.64a15.53,15.53,0,0,1,11-3c10,.86,8.43,2.44,15.22,3.19"/><path class="cls-1" d="M213.51,179.51s3.23-3.13,9.25-2.59c5.79.52,7.36,1.83,10.32,2.59"/><path class="cls-1" d="M118.26,161.34a13.74,13.74,0,0,1,5.61,2.44c2.22,1.84,10.09,6.27,13.11,7.79"/><path class="cls-1" d="M123,158a23.45,23.45,0,0,1,5.9,2.66c4.62,3.23,7.69,6,10.69,8.17"/><path class="cls-1" d="M129.54,155.63a13,13,0,0,1,4.91,2.43c2.21,1.84,4.54,5.32,7.39,8.53"/><path class="cls-1" d="M247.26,188.51s5.17-4.83,11.06-5.18,12.81.17,16.05-.54"/><path class="cls-1" d="M247.36,183.38a13.56,13.56,0,0,1,9.19-4.43c5.89-.35,12.33.56,16.09.3"/><path class="cls-1" d="M246.66,180a9.32,9.32,0,0,1,7.94-4.68c5.89-.35,6.31.19,11.9.83"/><path class="cls-1" d="M278.87,174.5a8.11,8.11,0,0,1,7.4-5.54c2.6-.13,5.92.06,10.21-.44"/><path class="cls-1" d="M305.88,165.07a8.11,8.11,0,0,1,7.4-5.54c2.6-.12,7.54.07,11.83-.44"/><path class="cls-1" d="M309.47,167.52a7.81,7.81,0,0,1,7.35-5c2.6-.13,8-.94,12.29-1.45"/><path class="cls-1" d="M312.24,171.37s1.37-4.35,7.49-5.4c2.57-.44,7.33-1.15,11.62-1.66"/><path class="cls-1" d="M282.39,177.63a9.57,9.57,0,0,1,7.87-5.37c2.59-.3,7.25-.39,11.53-.89"/><path class="cls-1" d="M285.34,181.76s1.25-4.07,7.15-5.46c2.53-.6,8.18-.56,12.47-1.07"/><path class="cls-2" d="M100.94,147.21s4.15,4.84,5.67,6.1,5.67,5.12,5.67,5.12"/><path class="cls-2" d="M106.05,143.9a43.3,43.3,0,0,1,5.34,6.12c1.08,1.65,4.07,5.61,4.07,5.61"/><path class="cls-2" d="M111.39,142.55a55.83,55.83,0,0,1,4.54,5.79c1.08,1.65,2.93,5.42,2.93,5.42"/><path class="cls-1" d="M336.19,157.42s.51-3.69,2.44-5.56c2.26-2.19,5.83-3,8-4.53"/><path class="cls-1" d="M332,155.21a12.26,12.26,0,0,1,1.77-5.35c2.05-2.93,6.81-3.51,9.32-4.37"/><path class="cls-1" d="M340.2,159.63a15.46,15.46,0,0,1,2.92-5c2.56-2.56,4.2-2.78,7.55-5.73"/><path class="cls-1" d="M350.67,142.4a8.17,8.17,0,0,1,.68-5.19c1.27-2.23,3.84-3.31,5.34-5.4"/><path class="cls-1" d="M345.43,139.69a8,8,0,0,1,.76-4.42c1.49-3,5.81-4.16,7.62-5.05"/><path class="cls-1" d="M356.69,145.28a10.68,10.68,0,0,1,.25-5.87c1.21-3.3,2.58-4.48,4-6.37"/><path class="cls-1" d="M279.47,184.7c-1.26-5.95-1.86-6.12-4.42-7.84s-9.72-3.67-12.42-4.34-8.84-1.49-12.71.65-7.49,5.49-7.66,9c0,.21,0,.42,0,.63a6.12,6.12,0,0,1,.57.63,9,9,0,0,1,1.66,7.93v0s.38,5.41,5.43,5.41,11.31-1,15.72-1.57S280.74,190.66,279.47,184.7Z"/><path class="cls-1" d="M207.75,190.26c-.43-2.25.21-3.89.58-5.83,0-.26.15-.91.27-1.54a4.89,4.89,0,0,0-.72-1.62c-2.34-3-15.24-12.37-22.12-12s-12.47,4.93-13.51,9.22c-.2.83-.78,2-.92,2.9-.18,1.12.32,2,0,3a8.57,8.57,0,0,0,.89,6.28c2.44,4.74,30,7.38,34,2.06a13.86,13.86,0,0,0,1.49-2.45S207.75,190.28,207.75,190.26Z"/><path class="cls-1" d="M171.36,184.43c.29-1.06-.21-1.9,0-3,.14-.88.72-2.07.92-2.9a9.06,9.06,0,0,1,1.65-3.28c-3.16-4.29-9.62-12.66-17.42-11.63-1.76.23-3.17,1.42-4.56,1.51-3.78.22-4.59,2.51-6.32,3.3-3.76,1.71-3.25,4.86-3.59,5-3.82,1.65-2.95,6.2-1.56,8.91,2.17,4.22,23.76,9.86,31.29,7.28A8.15,8.15,0,0,1,171.36,184.43Z"/><path class="cls-1" d="M142,173.41c.34-.14-.17-3.29,3.59-5a5.22,5.22,0,0,0,1.28-.9C144.65,160,139,151.75,130,152.93c-1.53.2-2.5,1.12-3.76,1.22-3.29.23-4,2.38-5.75,2.71-4.32.82-4.63,4-5,4.19-2.17,1.51-2.31,6-.91,8.72,1.86,3.63,16,9.3,24.86,9.84C139,177.21,139.3,174.58,142,173.41Z"/><path class="cls-1" d="M115.53,161.05c.33-.23.64-3.37,5-4.19,1.26-.24,2-1.48,3.65-2.21.15-7.85-2.67-11.59-3.77-13-1.52-2-4.47-.72-5.27-.72s-1.44-.8-3-1-2.56,1-3,1a10,10,0,0,0-3.41-.32c-1.75.24-2.07,2.4-3.27,2.48s-1.6.8-2,1.92-1.6.56-3.28.88-1.6,6.95-.8,9.3,4.88,4.68,10.71,8.62a23.84,23.84,0,0,0,6.68,3.07C113.5,164.58,114,162.1,115.53,161.05Z"/><path class="cls-1" d="M97.19,145.93c1.68-.32,2.88.25,3.28-.88s.8-1.84,2-1.92,1.52-2.24,3.27-2.48a10,10,0,0,1,3.41.32c.3,0,.92-.6,1.79-.89,1.07-5.76.19-11.63-2.52-13.18-1.75-1-1.66-.08-2.76-.08s-1.74-1-3.08-1.34-2,1-2.52,1.11-.87-1.19-2.67-1.11-2.22,1.74-3.08,1.74-.78-.52-2-.52-1.65,1.74-2.73,1.7a3.64,3.64,0,0,0-3-.14c-2.14.63-1.49,9.4.76,14.61a14.48,14.48,0,0,0,8.48,7.55C95.88,148.19,96.27,146.1,97.19,145.93Z"/><path class="cls-1" d="M86.55,128.29l.06,0a3.64,3.64,0,0,1,3,.14c1.08,0,1.54-1.7,2.73-1.7s1.09.52,2,.52,1.27-1.66,3.08-1.74,2.2,1.19,2.67,1.11,1.18-1.43,2.52-1.11,2,1.34,3.08,1.34,1-.91,2.76.08a4,4,0,0,1,.63.48c2.43-6,2-12.93-.56-14.89-1.6-1.23-1.63-.31-2.73-.46s-1.57-1.25-2.86-1.75-2.17.74-2.65.75-.7-1.29-2.5-1.46-2.43,1.42-3.29,1.3-.69-.62-1.87-.78-1.87,1.49-2.93,1.3a3.73,3.73,0,0,0-3-.55c-2.2.33-2.76,9.11-1.25,14.58A16.16,16.16,0,0,0,86.55,128.29Z"/><path class="cls-1" d="M117,103.9c-.08-5.31-.24-6-1.14-6.12s-1.36.41-2.19,0-1.29-2.12-2.32-2.21-2.27.92-3,.67-1.54-1.56-3-1.81-2.21,1.43-2.78,1.34-1.14-.93-2.2-.93-2,2-2.76,1.71-1.81-1.22-3.2-.08-2.61,2.86-2.85,6.37a35,35,0,0,0,.09,7.48,1.37,1.37,0,0,1,.92-.23c1.18.16,1,.66,1.87.78s1.49-1.47,3.29-1.3,2,1.47,2.5,1.46,1.37-1.25,2.65-.75,1.77,1.6,2.86,1.75,1.13-.77,2.73.46a6,6,0,0,1,1.82,3.41c.36-.22.72-.47,1.08-.74C116.31,111.41,117.12,109.2,117,103.9Z"/><path class="cls-1" d="M132.26,86.05c-.82-.38-1.65-.41-2.48-.81s-2.42-2.81-3.46-2.89-.93-1.36-2.4-1.61a40,40,0,0,0-5.31-.6c-1.29,0-2.22,1.47-3.29,1.47s-1.28-.4-2.49-.43c-.79,0-2.08.92-3.46,2.06a9.15,9.15,0,0,0-3.54,6.65c-.07,1-.33,2.69-.42,4.55,1.44.26,2.25,1.56,3,1.8s2-.75,3-.67,1.49,1.8,2.32,2.21,1.29-.08,2.19,0,1,.79,1.14,5.75a25.54,25.54,0,0,0,7.16-2.71c5.1-2.93,8.35-3.44,9.15-8.68C133.9,88.52,133.54,86.66,132.26,86.05Z"/><path class="cls-1" d="M151.76,74a6.42,6.42,0,0,0-7.28-4.44c-1.31.21-4.71-1.1-5.94-1-5.49.64-9.57,5.87-10.54,7-.6.68-2.68,3.29-4.14,5.15h.06c1.47.25,1.36,1.52,2.4,1.61s2.64,2.48,3.46,2.89,1.66.43,2.48.81c1.17.56,1.56,2.19,1.19,5.25a119,119,0,0,0,12.23-2.81c9.88-2.64,9.58-5.92,9.85-8.39S153,77.61,151.76,74Z"/><path class="cls-1" d="M179.9,67.36c-.8-3.71-7.75-7.2-13.28-7.14s-10.13,4.84-11.21,5.83c-.76.7-3.64,3.64-5.26,5.31A7,7,0,0,1,151.76,74c1.19,3.6,4,3.62,3.77,6.09a13.47,13.47,0,0,1-.31,2.14c3.92.21,8-.17,16.43-1.5,10.1-1.6,10.14-4.9,10.67-7.33S180.71,71.06,179.9,67.36Z"/><path class="cls-1" d="M309.47,174.08s-.05-2.64-1.84-3.24c0,0-.14-1.88-3.1-2.31s-2-2.05-12.36-2.47c-10-.42-14.33.28-17.5,10.56l.38.24c2.56,1.72,3.16,1.89,4.42,7.84a4.67,4.67,0,0,1-.42,3.13c1.78,1.48,4.28,3.21,7.77,2.84,4.16-.45,10.3-1.81,12.35-2.75s11-5.23,11.62-8.47S310.45,174.08,309.47,174.08Z"/><path class="cls-1" d="M334.43,161.91a3.05,3.05,0,0,0-2-2.33,3.62,3.62,0,0,0-3.32-2.77c-3-.42-.89.43-11.23,0s-13-.25-16.19,10.7a9.84,9.84,0,0,0,2.87,1c3,.43,3.1,2.31,3.1,2.31,1.79.6,1.84,3.24,1.84,3.24,1,0,1.91,2.14,1.32,5.37a2.93,2.93,0,0,1-.43,1,8.49,8.49,0,0,0,3.66.4c4.16-.45,10.3-2.92,12.35-3.85a20.64,20.64,0,0,0,8.74-8.47C336.77,165.35,335.42,161.91,334.43,161.91Z"/><path class="cls-1" d="M353.22,148.15c-.53-1.25-1.51-.89-1.86-1.11s.18-1-.69-1.91a1.82,1.82,0,0,0-2.06-.27,2.11,2.11,0,0,0-.91-1.27c-2.65-1.69-6.81.48-13.28,0s-8.79,4.53-9.31,8.16a11.61,11.61,0,0,0,.37,5.09,12.13,12.13,0,0,1,3.6-.06,3.62,3.62,0,0,1,3.32,2.77,3.05,3.05,0,0,1,2,2.33c.69,0,1.55,1.68,1.45,3.76a32.22,32.22,0,0,0,3.95.91c5.67,1,10.73-4.24,12.77-7.49S353.75,149.39,353.22,148.15Z"/><path class="cls-1" d="M210.51,63.9c-.39-3.77-6.91-8-12.41-8.56S187.49,59,186.31,59.89s-7.07,5.74-7.07,5.74a.81.81,0,0,0-.09.1,4.78,4.78,0,0,1,.75,1.63c.81,3.7,2.94,3.62,2.42,6a16.31,16.31,0,0,1-.5,2l.25.08c4.72,1,9.11.47,19.33,0s10-3,10.84-5.34S210.9,67.67,210.51,63.9Z"/><path class="cls-1" d="M363.48,131.39a9.35,9.35,0,0,0-4.34-.86,3.93,3.93,0,0,0-1.87-1c-1-.13-.72-1-2.16-1.37s-1.7,0-3.26,0-3.29.65-5.08.85-3.11.07-4.74,1.18-3.52,2.87-3.46,5.75a29.53,29.53,0,0,0,.83,7.61c3.73-.37,6.41-1.13,8.3.08a2.11,2.11,0,0,1,.91,1.27,1.82,1.82,0,0,1,2.06.27c.87.89.33,1.7.69,1.91s1.33-.14,1.86,1.11a11.62,11.62,0,0,1,.54,2.79h0a3.61,3.61,0,0,0,2.93.26c1.56-.52,5.81-3.73,7.19-6.93S367,132.7,363.48,131.39Z"/><path class="cls-1" d="M368,119.3c-.07-1.53-1.8-3.45-3.24-4.27a11.94,11.94,0,0,0-4.09-1.16c-1.21-.16-1.8-.84-2.89-1.35s-1.71-.09-2.69-.11a26.34,26.34,0,0,0-3.09-.14c-1.67.06-1.76,1.21-3,.92s-1.65,1-1.84,1.12-1.39-.2-2.48.41c-2.56,1.43-2.88,7.64-2.41,10.06a17,17,0,0,0,2.17,4.42c.73-.11,1.48-.14,2.34-.23,1.79-.2,3.51-.85,5.08-.85s1.83-.33,3.26,0,1.18,1.24,2.16,1.37a3.93,3.93,0,0,1,1.87,1,9.35,9.35,0,0,1,4.34.86c1.18.44,1.75,1.72,1.95,3.31a7,7,0,0,0,.5-1.11C367.38,129.22,368.1,120.83,368,119.3Z"/><path class="cls-1" d="M344.67,114.72c1.09-.61,2.28-.26,2.48-.41s.55-1.41,1.84-1.12,1.37-.86,3-.92a26.34,26.34,0,0,1,3.09.14c1,0,1.6-.41,2.69.11s1.68,1.19,2.89,1.35a17.19,17.19,0,0,1,1.77.31,67.69,67.69,0,0,0,.2-11.41c-.22-1.52-2.13-3.26-3.65-3.93a12.11,12.11,0,0,0-4.19-.75c-1.22,0-1.87-.65-3-1.06s-1.7.08-2.68.17a23.85,23.85,0,0,0-3.09.16c-1.66.23-1.63,1.38-2.93,1.22s-1.54,1.14-1.73,1.3-1.4-.06-2.42.65c-2.4,1.68-2.11,7.89-1.4,10.25.58,1.9,3.84,5.77,5.07,7.19A5.22,5.22,0,0,1,344.67,114.72Z"/><path class="cls-1" d="M339,100.53c1-.71,2.24-.49,2.42-.65s.42-1.46,1.73-1.3,1.27-1,2.93-1.22a23.85,23.85,0,0,1,3.09-.16c.55,0,1-.22,1.44-.29.42-3.48-.85-7.1-1.35-8.74-1.09-3.59-8.27-4.49-8.27-4.49a82.63,82.63,0,0,0-9.74-.64,7.29,7.29,0,0,0-6.91,4.8,1.75,1.75,0,0,0-2,.77c-2.89,4.54,4.9,12.08,7.62,14.25,2.23,1.79,5.92,2.11,7.17,2.17C337.31,103.11,337.84,101.32,339,100.53Z"/><path class="cls-1" d="M322.35,88.61a1.75,1.75,0,0,1,2-.77,7.35,7.35,0,0,1,6.14-4.76,8.86,8.86,0,0,0-.15-2.35c-1.08-5.32-2.65-7-7.84-8.91s-13.34-.27-15.67.17a11.34,11.34,0,0,0-5.87,4.28c-2.13,3.59,1.09,9.28,3.33,11,3,2.32,5.88,4.43,13.57,5.47a33.68,33.68,0,0,0,4.34.37A5,5,0,0,1,322.35,88.61Z"/><path class="cls-1" d="M300.92,76.27a11.48,11.48,0,0,1,4.42-3.74,8.67,8.67,0,0,0-.13-.89c-1.09-5.33-2.66-7-7.84-8.91S284.55,64.15,282.19,64c-1.45-.12-6.82,2.1-6.82,2.1-7.11,3.91-3,10-.54,11.39,4.14,2.24,8,3.31,18,5.44,4.92,1,7.06,1,8.35.18C300.19,80.83,299.75,78.24,300.92,76.27Z"/><path class="cls-1" d="M275,66.25c0-.18,0-.36,0-.55.26-3.78-5-8.11-10.28-9.6s-11.09,2.32-13.46,2.32c-1.46,0-6.63,2.65-6.63,2.65-6.76,4.48-2.21,10.25.4,11.4,4.31,1.89,8.26,2.65,18.4,4,5.55.71,8.16.59,9.62-.47C271.13,73.58,269.87,69.3,275,66.25Z"/><path class="cls-1" d="M242.72,62.74c0-.19-.05-.37-.08-.57-.39-3.77-6.44-8.12-11.94-8.66s-10.53,4.18-12.86,4.6c-1.44.25-6.07,3.75-6.07,3.75a10.85,10.85,0,0,0-1.36,1.53,4.59,4.59,0,0,1,.1.51c.39,3.77,2.51,3.93,1.73,6.29-.17.52-.3,1-.51,1.56A6.9,6.9,0,0,0,214.12,73c4.57,1.12,8.59,1.18,18.81.72,6.7-.3,9-1.06,10-3C241.22,68.82,240.09,65.67,242.72,62.74Z"/><path class="cls-1" d="M367.87,147.08c-2.84-.6-3.29,6.63-3.8,9.72-.71,4.22-1.94,8.12-.18,9.36a1.91,1.91,0,0,1,1.07,0,1.33,1.33,0,0,1,.73.46c4.27,0,4.21-3.13,4.66-6.29C371.16,154.55,370,147.52,367.87,147.08Z"/><path class="cls-1" d="M365,166.11c-2.84-.6-3.31,4.08-4.75,6.86-1,2-2.47,7.56-1.51,10.4a3,3,0,0,1,1.13.32,2.59,2.59,0,0,1,1.06,1.61c3.52,1.19,5.67-1.72,6.24-5.87C367.92,173.69,367.09,166.56,365,166.11Z"/><path class="cls-1" d="M359.83,183.69c-3.07-1.52-4.27,2.55-5.71,5.33-1.27,2.44-4.82,6.55-2.88,9.77.1.17.21.32.31.48a3.76,3.76,0,0,1,1.48.42,2.2,2.2,0,0,1,1,1.67c2,.74,4.08-.38,5.26-3.2C362,191.85,361.78,184.66,359.83,183.69Z"/><path class="cls-1" d="M353,199.69c-3.07-1.53-4.09,1.33-6.71,3.15-2,1.37-5.46,4.74-5,7.73a1.82,1.82,0,0,1,.72.76,5.52,5.52,0,0,1,.56,1.61c2.38,2.65,5.55,1.48,8-1.78C354.37,206.24,355,200.66,353,199.69Z"/><path class="cls-1" d="M342,211.33c-1.14-2.31-6-.63-8.65,0a7.75,7.75,0,0,0-5,5.39c1.14.79,1.93,1.73,1.86,2.82a4,4,0,0,1-.47,2c2.57,2.64,7.3,1.41,9.76-1.82C343.25,214.86,343,213.29,342,211.33Z"/><path class="cls-1" d="M323.13,214.5a7.75,7.75,0,0,0-7,2.08c.71,1.43,1,2.84.3,3.83a4.12,4.12,0,0,1-1.46,1.45c1.11,3.3,5.63,4.48,9.25,3,5.7-2.37,5.87-3.07,6-5.25C330.38,217,325.77,215.25,323.13,214.5Z"/><path class="cls-1" d="M313.09,212.34c-1.55-1.71-5.71-3.15-8.59-1.25.12,2.22-.13,4.35-1.88,4.82l-.44.11c.41,2.73,3.15,5.13,6.35,5.66,6.09,1,6.6.5,7.88-1.27C317.91,218.32,314.93,214.38,313.09,212.34Z"/><path class="cls-1" d="M304.1,207.2c-.22-2.43-3-6.35-6.69-6.17-.29,1.44-.9,2.59-2.06,2.95a3.65,3.65,0,0,1-2.35-.06c-1.08,2.41-.29,5.77,1.85,8,4.27,4.46,5.66,4.54,7.77,4C305.47,215.15,304.35,209.94,304.1,207.2Z"/><path class="cls-1" d="M278.23,206.3c-2.91-1-6.4,3.12-8.74,5-1.8,1.46-4.45,5.85-3.71,9.23a3.32,3.32,0,0,1,2.08.62,2.73,2.73,0,0,1,1,3c3.5,1.85,6.47,0,9-6.06C280.36,211.78,281.29,207.35,278.23,206.3Z"/><path class="cls-1" d="M267.86,221.17c-2.45-1.86-7.06.93-9.88,2-2.32.87-6.61,4.6-6.47,8.28a3.09,3.09,0,0,1,1.32,1,2.58,2.58,0,0,1,.35,2.45c2.75,3.06,6.19,2.36,10.56-2.75S270.43,223.13,267.86,221.17Z"/><path class="cls-1" d="M252.83,232.49c-1.79-2.52-7-1.22-10-1.05-2.39.14-7.31,2.26-8.52,5.61a3.1,3.1,0,0,1,.8,1.39,3,3,0,0,1-.49,2.56c1.68,4,5.2,4.43,11,.78S254.7,235.12,252.83,232.49Z"/><path class="cls-1" d="M235.08,238.44c-.75-3-6.1-3.67-9-4.6-2.63-.84-9.39-.44-10.81,3.61a3.2,3.2,0,0,1,.42,1.87,2.53,2.53,0,0,1-.62,1.43c.56,3.3,3.61,3.95,9.9,3.75C231.85,244.27,235.88,241.57,235.08,238.44Z"/><path class="cls-1" d="M209.22,232.12c-2.05-1.64-8.09-3.55-10.83-.61a2.5,2.5,0,0,1-.47,2.39,3.6,3.6,0,0,1-1,.75c-.67,3.37,1.69,5.63,7.65,6.67,6.42,1.12,10.78,1.08,11.14-2S211.48,233.93,209.22,232.12Z"/><path class="cls-1" d="M194.09,224.31c-1.61-2.37-7.71-6.48-11.11-3a1.78,1.78,0,0,1-.87,1.06c-2.21,3.24,0,5.91,4.84,9.41,5.28,3.82,9,4.24,11,2.16C200.06,231.62,195.72,226.71,194.09,224.31Z"/><path class="cls-1" d="M182,222.41a12.83,12.83,0,0,1-9.14-5.34c-3.54-5.06-4.61-8.28-.46-10.53s8.43,3.44,9.15,6.1S184.57,221.32,182,222.41Z"/><path class="cls-1" d="M155.7,204.37a4.75,4.75,0,0,1-1.77-1.27,19.19,19.19,0,0,0-5.79,3.64c-2.25,2-5.07,8.13-.31,10.16s6.1-.35,8.61-4.18c1.88-2.88,2.6-5.66,2-7.61A8.93,8.93,0,0,1,155.7,204.37Z"/><path class="cls-1" d="M145.25,212.75a15.43,15.43,0,0,0-7.65.65c-2.86,1-6.81,3.81-4.27,8.32,1.47,2.6,6.32,3.5,9.94.69,2.13-1.66,3.94-3.66,4.55-5.51A4,4,0,0,1,145.25,212.75Z"/><path class="cls-1" d="M133,216.87a14.58,14.58,0,0,0-7.14-4.35c-2.9-.83-7.77-.73-8.23,4.43-.27,3,3.22,6.47,7.79,6.2,3-.17,6-.94,7.41-2.42A4.53,4.53,0,0,1,133,216.87Z"/><path class="cls-1" d="M119,213.74c-.09-2-1.86-5.34-4.5-7.76-2.22-2-6.61-4.14-9.34.26-1.58,2.54,0,7.23,4.17,9,3.23,1.4,6.71,2,8.53.73A4.91,4.91,0,0,1,119,213.74Z"/><path class="cls-1" d="M107.58,204c.06-1.76-1.4-4.53-2.66-7.75-1.78-4.55-5.62-8.1-8.91-4.88-2.14,2.09-1.47,5.88,2.62,10,2.19,2.2,4.88,4.25,6.78,4.46A5.15,5.15,0,0,1,107.58,204Z"/><path class="cls-1" d="M96,191.37a4,4,0,0,1,2.27-1.19c-.19-1.69-.81-3.88-1.14-6.17-.7-4.83-3.63-9.17-7.57-6.78-2.56,1.55-2.77,5.39.28,10.32,1.56,2.51,3.39,4.73,5.15,5.51A3.78,3.78,0,0,1,96,191.37Z"/><path class="cls-1" d="M89.53,177.26l0,0a3.88,3.88,0,0,1,2.85-.6c.87-1.64.58-4.79.08-8.14-.73-4.83-1-9-5.77-8.64-3,.21-4.26,5.48-1.64,10.65C86.19,172.67,87.82,176,89.53,177.26Z"/><path class="cls-1" d="M89.13,145.76a12.26,12.26,0,0,1-1.76-2.89c-.21-.49-.41-1-.59-1.56a4.43,4.43,0,0,0-1.87-.24c-3.87.24-4.43,4.91-3.12,10.56.55,2.39,1.56,7.11,3.32,9a2.54,2.54,0,0,1,1.62-.76,5.84,5.84,0,0,1,1.78.12c1.09-2.16,1.18-6.32.93-9.3C89.3,149,89.29,147.26,89.13,145.76Z"/><path class="cls-1" d="M174.19,197a12.52,12.52,0,0,0-4-7.06,26.82,26.82,0,0,1-6.5.14c-1.92,1.95-.95,5.33,1.13,9.78a12.87,12.87,0,0,0,7.48,6.66l0,0a4.14,4.14,0,0,1,1.57-.49C175.31,204.2,174.4,199.35,174.19,197Z"/><path class="cls-1" d="M163.73,190.12c-1.18-.09-2.41-.24-3.66-.43a19.63,19.63,0,0,0-5,4.32c-1.79,2.43-4.14,8.33.62,10.36s7.17-.12,8.16-4.59c.1-.48.21-.95.31-1.42C162.6,194.67,162,191.84,163.73,190.12Z"/><path class="cls-1" d="M295.62,189a71,71,0,0,1-8.8,1.63h0a17.2,17.2,0,0,1,.28,6.07c.06.13.11.26.18.4,2.61,5.6,5.56,7.64,8.08,6.84,3.06-1,2.28-7.41,2-10.14A11.66,11.66,0,0,0,295.62,189Z"/><path class="cls-1" d="M281.37,189.48c-1.73,1.55-3.17,4.22-4.36,5.84-1.55,2.1-3.22,8.06-.54,10.94a3.1,3.1,0,0,1,1.76,0,2.58,2.58,0,0,1,1.67,1.64c3.67.71,6-1.81,6.86-8.17.52-3.92.66-7.09.06-9.1A8.94,8.94,0,0,1,281.37,189.48Z"/><path class="cls-1" d="M82.58,213.46c2.15.15,1.44,2.13,2,2s1.17-1.84,2.51-2l-.28-12.87s-4.67,1.4-5.91,5.12c-.71,2.15-.6,5.83-.37,8.55A2.51,2.51,0,0,1,82.58,213.46Z"/><path class="cls-1" d="M380,233.76a14.71,14.71,0,0,0-4.91-.19c-1.21.24-2.78,0-4.9.64-1.2.37-3.46-1.2-6.6,1.3l-.75,15.85a18.23,18.23,0,0,1,3.81-.81c1.32-.12,2.49-1.08,3.17-1.08a31.94,31.94,0,0,1,3.39,0c.71.12.88,1.05,1.6,1.05s1.26-.09,2.34-.09,1.91,1.07,4.78,2.63a2.55,2.55,0,0,1,1.11,1.28l.69-.3a19.32,19.32,0,0,0,2.44-8.76C386,240.85,387.59,234.59,380,233.76Z"/><path class="cls-1" d="M380.41,236.27s2.63,6.23-.51,15.61"/><path class="cls-1" d="M375.35,235.61s1.89,3.15.52,14.86"/><path class="cls-1" d="M370.69,236.27s1.07,1,.48,13.15"/><path class="cls-1" d="M381.88,253.06c-2.87-1.56-3.71-2.63-4.78-2.63s-1.62.09-2.34.09-.89-.93-1.6-1.05a31.94,31.94,0,0,0-3.39,0c-.68,0-1.85,1-3.17,1.08a15.59,15.59,0,0,0-4.74,1.2c-1.09.56-2.65,3-2.78,7.11a39.53,39.53,0,0,0-.06,7.71c1.08-.13,2.14-.18,3.12-.22,4.17-.15,6-.24,6.72.23s.9.44,1.52.82a4.08,4.08,0,0,1,1.51,1.59,1.45,1.45,0,0,0,1,.83,4,4,0,0,1,1.5,1,4.09,4.09,0,0,1,.57,2l.95-.05a7.84,7.84,0,0,0,6.58-6.54C383.07,261.66,384.75,254.61,381.88,253.06Z"/><path class="cls-1" d="M374.38,270.82a4,4,0,0,0-1.5-1,1.45,1.45,0,0,1-1-.83,4.08,4.08,0,0,0-1.51-1.59c-.62-.38-.91-.41-1.52-.82s-2.55-.38-6.72-.23-9.75.59-12.17,6a15.63,15.63,0,0,0-1,9.3c1.53.12,2.95.24,4,.28,3.16.1,5.71,1.2,5.71,4.95,0,0,1.82.76,1.62,3.75,3.62.17,9.57-.18,12.34-6C375.92,277.79,375.11,271.48,374.38,270.82Z"/><path class="cls-1" d="M72.85,232.49a2.69,2.69,0,0,1,.34-.12c.93-.19,1.93.58,2.85.35s.8-1.2,2.57-1,.87.7,2.48.44a6.7,6.7,0,0,1,2.77-.21c1.15.17.66,2.08,2.68,1.89a.67.67,0,0,1,.58.2l.39-.11-.44-20.52c-1.34.15-2,1.84-2.51,2s.17-1.83-2-2c-2.64-.19-3,3.06-3.76,2.3-2.16-2.06-5.13.61-6,5s0,11.73,0,11.73Z"/><path class="cls-1" d="M71.51,250.72c.74-.21,1.22-1.28,2.16-1.28s1.73.21,2.68.21.77-1.19,2.56-1.12,1.55.64,3.12.22.69-.49,1.86-.5c1.7,0,.87,1.05,2.86.66,1.34-.26,1.63-.35,2.08-.2,1.11-6.16-.24-8-1.09-8.48-1.25-.76.81-6.54-1.2-6.35S85,232.16,83.86,232a6.7,6.7,0,0,0-2.77.21c-1.61.26-.72-.19-2.48-.44s-1.65.74-2.57,1-1.92-.54-2.85-.35-1.55.89-2.3,1-1.24-.29-2.72-.23-3.66,5.9-1.36,13.39a13.6,13.6,0,0,0,2.29,4.3A18.81,18.81,0,0,0,71.51,250.72Z"/><path class="cls-1" d="M75.85,269.87c1.29-.65,1.72-.32,2.8-1.29S79,266.1,81.23,266s2.36-1.29,4.09-1.4,3.82-1.21,5.07-.86a13.19,13.19,0,0,1,1.56.64c1.12-9.3-1.27-14.8-2.22-15.24-1.32-.63-1-.61-3-.22s-1.16-.68-2.86-.66c-1.17,0-.29.08-1.86.5s-1.34-.15-3.12-.22-1.62,1.12-2.56,1.12-1.74-.21-2.68-.21-1.42,1.07-2.16,1.28-1.3,0-2.77.19-3,7.12,0,14.35a16.17,16.17,0,0,0,6.17,6.92C75.06,271,75.39,270.1,75.85,269.87Z"/><path class="cls-1" d="M92.12,286.66c3.14-2.52,5-5.46,9.93-6.61-.28-3.1-.74-6.13-.85-8.13-.28-5.39-4.24-6.9-6.38-6.9s-3.18-.93-4.43-1.29-3.34.76-5.07.86-1.82,1.3-4.09,1.4-1.5,1.62-2.58,2.59-1.51.64-2.8,1.29-1.51,6.35,0,9.69c1.4,3.09,6.89,7.11,10.88,9.48a17.36,17.36,0,0,0,3.08,1.4A5.91,5.91,0,0,1,92.12,286.66Z"/><path class="cls-1" d="M114.25,300.06a67.75,67.75,0,0,1,6.52-4.87c-1.51-4.46-4-15.64-14-15.63-8.87,0-10.71,3.91-14.7,7.1-3.44,2.76-2.34,6.1-1.68,9.08.86,3.8,12.85,9.35,21.6,10.95C111.65,304.41,111.73,302.08,114.25,300.06Z"/><path class="cls-1" d="M358.73,286.89c0-3.75-2.55-4.85-5.71-4.95s-8.89-.95-12.45-.16-6.71.89-9.38,6.62a18,18,0,0,0-1.74,7.38c.68.07,1.28.12,1.76.13,3.16.1,6.64,2.3,6.64,6,0,0,2.22.9.43,4.66,3.37.86,6.72,0,9.26-.5,4.87-1,9-6.23,11-10C362.56,288.47,358.73,286.89,358.73,286.89Z"/><path class="cls-1" d="M337.85,302c0-3.75-3.48-5.95-6.64-6s-11.54-1.73-15.1-.94-6.71.89-9.38,6.62a18.42,18.42,0,0,0-1.64,5.72c2.72,1,5.5,3.34,5.5,6.18,0,0,2.86.79,1.28,4.74,0,.1-.1.2-.15.3,4.47,1.92,9.37.33,12.59,0,4.94-.59,11.43-7.33,13.54-11C340.39,303,337.85,302,337.85,302Z"/><path class="cls-1" d="M143.37,308.65a8.55,8.55,0,0,1,1.95-2.37c-2.52-4.68-7.94-12.82-13.58-13.95-6.76-1.36-13.5,4.53-17.49,7.73-3.44,2.76-2.34,6.1-1.68,9.07,1,4.33,18.66,10.27,27.59,9.75C140.18,315.92,141.61,311.91,143.37,308.65Z"/><path class="cls-1" d="M310.59,313.49c0-3.75-4.84-6.62-8-6.71s-11.85-3.07-15.41-2.28-6.71.89-9.38,6.62a18.12,18.12,0,0,0-1.71,6.52,13.84,13.84,0,0,1,2.06,1.94,9.3,9.3,0,0,1,1.91,6.77c5.08,4.34,11.43,2.13,15.32,1.66,4.94-.59,14.91-5.83,16.49-9.78S310.59,313.49,310.59,313.49Z"/><path class="cls-1" d="M278.15,319.58c-2.34-3-13.77-10.13-20.65-9.74S245,314.78,244,319.06c-.18.76-.34,1.55-.48,2.35a8.8,8.8,0,0,1,.63,10.07c3.17,4.52,30.05,4.51,34-.73A8.86,8.86,0,0,0,278.15,319.58Z"/><path class="cls-1" d="M173,328.69c-1.14-2.83-.31-8,1.12-12.16a7.6,7.6,0,0,1,.57-1.24c-3.27-4.32-10.45-11.05-16-12.16-6.76-1.36-13.31,1.63-15.39,5.52s-3.75,8.83-3.08,11.81c1.14,5.09,26.82,11.94,32.81,8.34A.39.39,0,0,1,173,328.69Z"/><path class="cls-1" d="M209.3,333c-1.4-2.71-1-7.92,0-12.2s6.62-8.83,13.51-9.22,18.31,6.75,20.64,9.74a8.82,8.82,0,0,1,0,11.16C239.43,337.83,211.74,337.76,209.3,333Z"/><path class="cls-1" d="M209,322a10,10,0,0,0-.91-1.84c-2.05-3.19-12.77-11.36-19.66-11.6s-12.87,3.76-14.3,7.93-2.26,9.33-1.12,12.16c2,4.94,29.55,7.56,34.05,2.63a10.53,10.53,0,0,0,1.35-1.82A28,28,0,0,1,209,322Z"/><path class="cls-1" d="M212.26,327.1s2.86-4.4,11.14-3.74c10,.8,11.41,2,18.18,2.49"/><path class="cls-1" d="M213.53,322.23a15.53,15.53,0,0,1,11-3.05c10,.86,8.43,2.44,15.23,3.2"/><path class="cls-1" d="M215.24,318.1s3.23-3.13,9.24-2.59c5.8.52,7.37,1.83,10.33,2.59"/><path class="cls-1" d="M177.08,319.92s3.36-2.05,11.2.53c6.42,2.12,8.1,3.63,17.08,5.42"/><path class="cls-1" d="M145.08,313.77s3.71-2.68,11,1.18c5,2.63,6,4.84,13.48,7"/><path class="cls-1" d="M146.76,309.69s3.73-3,11,.88c5,2.63,5.69,5.29,13.17,7.45"/><path class="cls-1" d="M150.08,305.53s4.27-1.9,11.56,2c5,2.63,4.23,4.08,10.11,7.68"/><path class="cls-1" d="M116.38,302.61s3.49-3,10.55,1.32c2.87,1.74,5.16,4.31,11.32,7.3"/><path class="cls-1" d="M121.05,297.9s3.64-1,8.66,1.81,4.6,4.29,10.43,8.35"/><path class="cls-1" d="M125.7,294.76a12.46,12.46,0,0,1,8,2c4.77,3,5.71,5.87,8.41,8.93"/><path class="cls-1" d="M94.33,287.81s3.4-1.67,9.38,4c2.44,2.31,4,4.46,9.38,8.69"/><path class="cls-1" d="M79.15,271.24s2.53-1.31,7,3.84c2.2,2.53,2.81,5.38,8.19,9.61"/><path class="cls-1" d="M72.74,253.07A11.44,11.44,0,0,1,76,258c1.12,3.16.85,4.85,3.63,8.72"/><path class="cls-1" d="M71.76,236s.69.71,1.88,4.05c1.13,3.17.51,4.24,1.16,6.84"/><path class="cls-1" d="M78.85,218s-1.59,1.12-2,4.45c-.26,2.13,0,3.39,0,7.17"/><path class="cls-1" d="M83.81,217.65s-1.59,1.12-2,4.45c-.27,2.13,0,3.39,0,7.17"/><path class="cls-1" d="M76.84,234.89a13.46,13.46,0,0,1,1.35,4.46,60.09,60.09,0,0,0,1,6.68"/><path class="cls-1" d="M81.59,234.89a13.34,13.34,0,0,1,1.34,4.46,62.82,62.82,0,0,0,1,6.68"/><path class="cls-1" d="M78.19,251.68a11,11,0,0,1,3.45,5c1.13,3.16.69,5.6,2.27,8.39"/><path class="cls-1" d="M84.34,250.91s.73.71,1.92,4.05c1.13,3.16,1.25,6.06,2,9"/><path class="cls-1" d="M85.32,267.59s3-.12,5.79,5.26c1.55,3,1.58,6.27,5.8,9.58"/><path class="cls-1" d="M91.64,266.53s3.07.88,4,5.06c.72,3.28,2.2,5.88,4,9.26"/><path class="cls-1" d="M99.11,283.82s3.78-.25,8.08,3.61,3.59,5.17,8.42,10.37"/><path class="cls-1" d="M104.32,281.74a12.38,12.38,0,0,1,7.44,3.64c4,3.93,4.35,6.95,6.34,10.51"/><path class="cls-1" d="M179.67,315.61s4.3-1.86,10.71.69,8.34,4.15,14.69,5.32"/><path class="cls-1" d="M182.48,312.13s4-2.09,9.59.12c5.42,2.14,6.15,4.05,9.68,5.16"/><path class="cls-1" d="M247.69,326s1.6-4.73,9.9-4.31c10.06.51,11.45,1.71,18.24,2"/><path class="cls-1" d="M247.69,320.81a15.52,15.52,0,0,1,10.93-3.37c10.06.56,8.49,2.19,15.31,2.75"/><path class="cls-1" d="M249.28,316.62s3.14-3.22,9.16-2.85c5.81.36,7.42,1.62,10.4,2.29"/><path class="cls-1" d="M281.76,321.62s1.45-5.3,9.68-6.44c7.16-1,7.83,1.44,16.88-1"/><path class="cls-1" d="M314,313.29s1-4.38,6.35-6.83c5-2.25,6.45,0,14.06-3.51"/><path class="cls-1" d="M310.93,308.89s1.18-3.32,6.55-5.76c5-2.25,7-1,15.08-2.8"/><path class="cls-1" d="M308.93,305.1s.61-3.5,6-5.94c4.95-2.26,6.4-.37,14-1.4"/><path class="cls-1" d="M337.82,301.43s.73-3.91,5.62-7.21c4.51-3,6.26-.91,13.18-5.59"/><path class="cls-1" d="M335.15,297s.42-3.87,5.32-7.17c4.5-3,6.75-1.2,14.59-4.87"/><path class="cls-1" d="M332.92,293.5a11.23,11.23,0,0,1,4.54-6.77c4.33-3.28,5.71-.82,13.09-3.11"/><path class="cls-1" d="M352.92,279.26a7.21,7.21,0,0,1,2.95-7.28c4.33-3.29,3.87-1.61,11.24-3.89"/><path class="cls-1" d="M357,280.87a10.48,10.48,0,0,1,3.39-5.94c2.09-1.75,4.64-2.93,9.28-5"/><path class="cls-1" d="M360.68,284.19s-.19-3.15,3.73-6.37c2.11-1.73,3.85-2.41,7.1-5.84"/><path class="cls-1" d="M280.08,316.62s2.43-4.64,9.29-5.3c10-.95,9.64,1,16.63-.29"/><path class="cls-1" d="M281,311.8s1.12-3.67,7.12-4.31c4.55-.49,7.83.88,10.87,1.1"/><path class="cls-1" d="M374.21,252.52a59.48,59.48,0,0,1-2.5,11.77"/><path class="cls-1" d="M368.34,252.52s.47,2.84-1.31,11.3"/><path class="cls-1" d="M379,253.58s1,5.6-3.79,12.65"/><path class="cls-1" d="M375.5,218.44s3.43,3.75,1.65,15"/><path class="cls-1" d="M369.51,218.05s5.22,4.14,3.45,15.38"/><path class="cls-1" d="M364,214.41c2-.6,4.06,1.08,4.06,1.08a16.32,16.32,0,0,1,2.25.06c.28-2.7.59-7.33-.25-9.85-1.24-3.72-5.77-5.12-5.77-5.12Z"/><path class="cls-1" d="M363.54,235.51c3.14-2.5,5.4-.93,6.6-1.3,2.12-.65,3.69-.4,4.9-.64a14.71,14.71,0,0,1,4.91.19l.5.08c1-3.2,1.91-7,1.5-10-.85-6.08-5.47-7.85-8.39-7.7a16.81,16.81,0,0,0-5.52-.69s-2.1-1.68-4.06-1.08Z"/></svg>