<svg id="cream5_top_line" xmlns="http://www.w3.org/2000/svg" viewBox="0 0 450 390"><defs><style>.cls-1,.cls-2{fill:none;stroke:#000;stroke-linecap:round;}.cls-1{stroke-linejoin:round;}</style></defs><path class="cls-1" d="M74.47,223.08A22.14,22.14,0,0,0,79.7,210"/><path class="cls-1" d="M64.69,221.79S73.51,218,77.38,210"/><path class="cls-1" d="M82.7,226.84c2.09-4,3-9.54-.62-16.33"/><path class="cls-1" d="M61.2,246.69s13-6.08,13.7-20"/><path class="cls-1" d="M59.89,238.55s8.82-3.75,12.69-11.83"/><path class="cls-1" d="M79.24,240.17c.92-3.53.73-7.87-2-12.89"/><path class="cls-1" d="M85.18,233.49c-.69-1.25-3.39-3.6-4.63-5.35"/><path class="cls-1" d="M62.89,263.89s13-6.08,13.71-20"/><path class="cls-1" d="M61.59,255.75S70.4,252,74.27,243.92"/><path class="cls-1" d="M80.23,259.46c1.6-3.87,2-8.92-1.25-15"/><path class="cls-1" d="M88.94,257.56a16.32,16.32,0,0,0-2.07-6.87c-.68-1.25-3.38-3.6-4.62-5.35"/><path class="cls-1" d="M71.64,280.66s13-6.08,13.71-20"/><path class="cls-1" d="M70.34,272.52s8.81-3.75,12.68-11.83"/><path class="cls-1" d="M81.71,285s14-8.82,6-23.73"/><path class="cls-1" d="M98.71,275.09a11.31,11.31,0,0,0-3.09-7.63c-.94-1.07-3.38-3.6-4.62-5.35"/><path class="cls-1" d="M363.68,223.27a21.69,21.69,0,0,0,6.47-14.18"/><path class="cls-1" d="M364,214.66a20.71,20.71,0,0,0,4-5.57"/><path class="cls-1" d="M373.89,223.27c1.3-3.6,1.45-8.2-1.47-13.65"/><path class="cls-1" d="M382.38,226.21a10.42,10.42,0,0,0-2.4-10.65c-.9-1-3.24-3.44-4.43-5.11"/><path class="cls-1" d="M88.75,297.43s12.94-6.08,13.7-20"/><path class="cls-1" d="M87.44,289.29s8.82-3.75,12.69-11.83"/><path class="cls-1" d="M98.82,301.74s14-8.82,6-23.73"/><path class="cls-1" d="M115.77,292.82a11.22,11.22,0,0,0-3-8.6c-.94-1.06-3.39-3.59-4.63-5.34"/><path class="cls-1" d="M363.43,245.32c2.76-1.56,11.68-7.45,12.3-18.67"/><path class="cls-1" d="M363.27,237c2.71-1.54,7.63-4.92,10.23-10.34"/><path class="cls-1" d="M379.22,241.46c1.52-3.69,1.87-8.51-1.22-14.28"/><path class="cls-1" d="M386.66,246.89c1.82-3.22,3.47-8.57-1.1-13.77-.9-1-3.24-3.44-4.43-5.12"/><path class="cls-1" d="M113.6,310.4s12.94-6.08,13.7-20"/><path class="cls-1" d="M112.29,302.26s8.81-3.75,12.68-11.84"/><path class="cls-1" d="M123.66,314.7s14-8.82,6-23.72"/><path class="cls-1" d="M136.48,314.7s8.63-8.95,1.09-17.51c-.94-1.07-3.38-3.6-4.62-5.35"/><path class="cls-1" d="M143.65,321.6s12.95-6.08,13.7-20"/><path class="cls-1" d="M142.34,313.46s8.82-3.75,12.69-11.84"/><path class="cls-1" d="M153.72,325.9s14-8.81,6-23.72"/><path class="cls-1" d="M166.53,325.9s8.64-8.95,1.1-17.51c-.94-1.07-3.39-3.6-4.63-5.35"/><path class="cls-1" d="M368.25,258a21.68,21.68,0,0,0,6.55-14.27"/><path class="cls-1" d="M360.44,255.09s8.43-3.59,12.13-11.32"/><path class="cls-1" d="M375.49,263.18c3.14-3.79,6.19-10.27,1.59-18.88"/><path class="cls-1" d="M383.58,267s8.26-8.56,1.05-16.76c-.9-1-3.24-3.44-4.43-5.11"/><path class="cls-1" d="M356.63,278.21c3.69-2.87,8.7-8.26,9.15-16.57"/><path class="cls-1" d="M351.42,273s8.43-3.58,12.14-11.32"/><path class="cls-1" d="M364,283.6c3.32-2.85,10-10.4,4.09-21.43"/><path class="cls-1" d="M374.57,284.87s8.25-8.56,1-16.75c-.9-1-3.24-3.44-4.42-5.12"/><path class="cls-1" d="M337.51,294.7c3.89-2.94,9.42-8.64,9.9-17.58"/><path class="cls-1" d="M332.4,289s8.82-3.75,12.69-11.84"/><path class="cls-1" d="M343.78,301.41s14-8.82,6-23.73"/><path class="cls-1" d="M356.59,301.41s8.63-9,1.1-17.52c-.94-1.07-3.39-3.6-4.63-5.35"/><path class="cls-1" d="M312.4,310c3.53-2.19,11.43-8.26,12-19"/><path class="cls-1" d="M309.4,302.82s8.82-3.75,12.69-11.83"/><path class="cls-1" d="M320.78,315.27s14-8.82,6-23.73"/><path class="cls-1" d="M333.6,315.27s8.63-8.95,1.09-17.52c-.94-1.06-3.39-3.59-4.63-5.34"/><path class="cls-1" d="M281.26,321.48s12.95-6.08,13.71-20"/><path class="cls-1" d="M280,313.34s8.82-3.75,12.69-11.83"/><path class="cls-1" d="M291.33,325.79s14-8.82,6-23.73"/><path class="cls-1" d="M304.15,325.79s8.63-9,1.09-17.52c-.94-1.06-3.39-3.59-4.62-5.34"/><path class="cls-1" d="M176.47,327.16s12.94-6.08,13.7-20"/><path class="cls-1" d="M175.16,319s8.81-3.75,12.68-11.83"/><path class="cls-1" d="M186.53,331.47s14-8.82,6-23.72"/><path class="cls-1" d="M199.35,331.47s8.63-9,1.09-17.51c-.94-1.07-3.38-3.6-4.62-5.35"/><path class="cls-1" d="M247.85,327.73s13-6.08,13.71-20"/><path class="cls-1" d="M246.54,319.59s8.82-3.75,12.69-11.83"/><path class="cls-1" d="M257.92,332s14-8.82,6-23.73"/><path class="cls-1" d="M270.74,332s8.63-9,1.09-17.52c-.94-1.07-3.39-3.6-4.63-5.35"/><path class="cls-1" d="M226.14,306.48s-1.88-1-2.92.07a21.34,21.34,0,0,1-5.46,3.92c-2.23,1-5.66,2.56-6.3,4.19a3.23,3.23,0,0,0,.51,2.87s-2.94.26-3.68,2.76a7.16,7.16,0,0,0,.39,3.94c.74,2.16-.33,2.4-.54,3.24s-.5,3.54,1.11,4.38,2.75,1,3.37,2-.39,1.88,1.64,2.89,4.61.29,6.15.7,2.87,2,5.87,1.85,5.66-2,7.68-2a7.68,7.68,0,0,0,4.47-1.05c1.26-.77,5.66-5,5.8-8.66s1.33-9.35-3.56-13.27c-1.75-1.39-5-3-7-4.67C230,306.65,228.51,304.67,226.14,306.48Z"/><path class="cls-1" d="M212.43,329.56s12.94-6.08,13.7-20"/><path class="cls-1" d="M211.12,321.42s8.82-3.75,12.69-11.83"/><path class="cls-1" d="M222.5,333.87s14-8.82,6-23.73"/><path class="cls-1" d="M235.31,333.87s8.63-8.95,1.1-17.51c-.94-1.07-3.39-3.6-4.63-5.35"/><path class="cls-1" d="M208.39,323.24a5.75,5.75,0,0,1-.1-2.95,3.27,3.27,0,0,1,.18-.47,10.13,10.13,0,0,0-3.76-7.9c-1.75-1.4-5-3-7-4.68-3.64-3-5.17-5-7.55-3.16,0,0-1.87-1-2.92.07a21.26,21.26,0,0,1-5.45,3.92c-2.23,1.05-5.66,2.56-6.3,4.19a3.23,3.23,0,0,0,.5,2.87s-2.93.26-3.67,2.76a7.16,7.16,0,0,0,.39,3.94c.73,2.16-.34,2.4-.55,3.24s-.49,3.54,1.12,4.38,2.74,1,3.37,2-.39,1.88,1.64,2.89,4.61.29,6.15.71,2.87,2,5.87,1.85,5.66-2,7.68-2a7.7,7.7,0,0,0,4.47-1.05c1.26-.77,5.66-5,5.8-8.66C208.29,324.59,208.34,323.93,208.39,323.24Z"/><path class="cls-1" d="M212.43,329.56s12.94-6.08,13.7-20"/><path class="cls-1" d="M211.12,321.42s8.82-3.75,12.69-11.83"/><path class="cls-1" d="M222.5,333.87s14-8.82,6-23.73"/><path class="cls-1" d="M235.31,333.87s8.63-8.95,1.1-17.51c-.94-1.07-3.39-3.6-4.63-5.35"/><path class="cls-1" d="M172.17,325.07c.21-.84,1.28-1.08.55-3.24a7.16,7.16,0,0,1-.39-3.94,4.17,4.17,0,0,1,3.34-2.71c0-.21,0-.43,0-.65a2.92,2.92,0,0,1-.21-2.09,9.59,9.59,0,0,0-3.56-6.09c-1.74-1.4-5-3-7-4.68-3.65-3-5.18-5-7.55-3.15,0,0-1.87-1-2.92.06a21.58,21.58,0,0,1-5.46,3.93c-2.23,1-5.65,2.56-6.3,4.18a3.25,3.25,0,0,0,.51,2.87s-2.94.26-3.68,2.76a7.06,7.06,0,0,0,.4,3.94c.73,2.17-.34,2.41-.55,3.24s-.49,3.55,1.11,4.39,2.75,1,3.38,2-.39,1.88,1.63,2.89,4.62.29,6.15.71,2.87,2,5.87,1.85,5.66-2,7.69-2a7.8,7.8,0,0,0,4.47-1,13.92,13.92,0,0,0,2.37-2.15A6.53,6.53,0,0,1,172.17,325.07Z"/><path class="cls-1" d="M140,316.76c0-.16-.07-.31-.13-.5a7.06,7.06,0,0,1-.4-3.94c.74-2.5,3.68-2.76,3.68-2.76a3.25,3.25,0,0,1-.51-2.87,6.53,6.53,0,0,1,2.94-2.52c0-3.05-.55-6.43-3.79-9-1.74-1.4-5-3-7-4.68-3.64-3-5.17-5-7.55-3.15,0,0-1.87-1-2.92.06a21.5,21.5,0,0,1-5.45,3.93c-2.23,1-5.66,2.55-6.3,4.18a3.23,3.23,0,0,0,.5,2.87s-2.93.26-3.68,2.76a7.24,7.24,0,0,0,.4,3.94c.73,2.16-.34,2.41-.55,3.24s-.49,3.55,1.12,4.38,2.74,1.05,3.37,2-.39,1.88,1.64,2.89,4.61.29,6.15.71,2.87,2,5.87,1.85,5.66-2,7.68-2a7.7,7.7,0,0,0,4.47-1.05A4.72,4.72,0,0,0,140,316.76Z"/><path class="cls-1" d="M109.85,305.06a7.24,7.24,0,0,1-.4-3.94c.75-2.5,3.68-2.76,3.68-2.76a3.23,3.23,0,0,1-.5-2.87c.64-1.63,4.07-3.14,6.3-4.18a15.8,15.8,0,0,0,1.83-1,10.21,10.21,0,0,0-3.77-8.1c-1.75-1.39-5-3-7-4.68-3.64-3-5.17-5-7.54-3.15,0,0-1.88-1-2.92.07a21.83,21.83,0,0,1-5.46,3.92c-2.23,1.05-5.65,2.56-6.3,4.18a3.25,3.25,0,0,0,.51,2.87s-2.94.26-3.68,2.77A7.16,7.16,0,0,0,85,292.1c.74,2.16-.33,2.4-.54,3.24s-.49,3.54,1.11,4.38,2.75,1,3.37,2-.39,1.87,1.64,2.88,4.61.29,6.15.71,2.87,2,5.87,1.85c2.82-.13,5.32-1.77,7.29-2C109.87,305.15,109.87,305.11,109.85,305.06Z"/><path class="cls-1" d="M84.61,288.16c.74-2.51,3.68-2.77,3.68-2.77a3.25,3.25,0,0,1-.51-2.87c.65-1.62,4.07-3.13,6.3-4.18a21.83,21.83,0,0,0,5.46-3.92c1-1.05,2.92-.07,2.92-.07a3.45,3.45,0,0,1,1.2-.62,10.28,10.28,0,0,0-3.78-8.32c-1.74-1.39-5-3-7-4.67-3.64-3-5.17-5-7.55-3.16,0,0-1.87-1-2.92.07A21.26,21.26,0,0,1,77,261.57c-2.24,1.05-5.66,2.56-6.3,4.18a3.25,3.25,0,0,0,.5,2.88s-2.93.26-3.68,2.76a7.15,7.15,0,0,0,.4,3.94c.73,2.16-.34,2.4-.55,3.24s-.49,3.54,1.12,4.38,2.74,1,3.37,2-.39,1.88,1.64,2.88,4.61.29,6.15.71c1.36.38,2.57,1.65,4.93,1.83A4.81,4.81,0,0,1,84.61,288.16Z"/><path class="cls-1" d="M67.5,271.39c.75-2.5,3.68-2.76,3.68-2.76a3.25,3.25,0,0,1-.5-2.88c.64-1.62,4.06-3.13,6.3-4.18a21.26,21.26,0,0,0,5.45-3.92c1-1,2.92-.07,2.92-.07,2.38-1.81,3.91.17,7.55,3.16l.41.31c.23-3.45.8-7.6-2.74-12.61-1.29-1.83-4.4-2.93-6.42-4.59-3.64-3-5.17-5-7.55-3.15,0,0-1.87-1-2.92.06a21.69,21.69,0,0,1-5.45,3.93c-2.24,1.05-5.66,2.56-6.3,4.18a3.23,3.23,0,0,0,.5,2.87s-2.93.26-3.68,2.77a7.16,7.16,0,0,0,.4,3.94c.73,2.16-.34,2.4-.55,3.24s-.49,3.54,1.12,4.38,2.74,1,3.37,2S62.7,270,64.72,271a6.55,6.55,0,0,0,2.75.57A.8.8,0,0,0,67.5,271.39Z"/><path class="cls-1" d="M61.4,250.89a1.91,1.91,0,0,1,.25,1,4.84,4.84,0,0,1,.78-.16,3.23,3.23,0,0,1-.5-2.87c.64-1.62,4.06-3.13,6.3-4.18a21.69,21.69,0,0,0,5.45-3.93c1-1,2.92-.06,2.92-.06,2.38-1.82,3.91.16,7.55,3.15a31.65,31.65,0,0,0,3.73,2.38l-.41-16.35c-1.5-1.11-3.54-2-5-3.23-3.65-3-5.18-5-7.55-3.15,0,0-1.88-1-2.92.06a21.58,21.58,0,0,1-5.46,3.93c-2.23,1-5.65,2.56-6.3,4.18a3.25,3.25,0,0,0,.51,2.87s-2.94.26-3.68,2.77a7.07,7.07,0,0,0,.4,3.94c.73,2.16-.34,2.4-.55,3.24S56.42,248,58,248.87,60.77,249.91,61.4,250.89Z"/><path class="cls-1" d="M66.53,227.49A21.58,21.58,0,0,0,72,223.56c1-1,2.92-.06,2.92-.06,2.37-1.82,3.9.16,7.55,3.15,1.44,1.19,3.44,2.09,4.93,3.18L87,209.93c-3.65-3-4.94-5-7.31-3.2,0,0-1.87-1-2.92.07a21.94,21.94,0,0,1-5.45,3.92c-2.24,1.05-5.66,2.56-6.31,4.18a3.25,3.25,0,0,0,.51,2.87s-2.94.26-3.68,2.77a7.06,7.06,0,0,0,.4,3.94c.73,2.16-.34,2.4-.55,3.24a6.39,6.39,0,0,0-.08,2.4A30.87,30.87,0,0,1,66.53,227.49Z"/><path class="cls-1" d="M76.79,206.8c1-1.05,2.92-.07,2.92-.07,2.37-1.81,3.66.21,7.31,3.2l.23,12.33h.12l-.59-27.52c-.4.24-.82.46-1.24.66-2.23,1-5.65,2.56-6.3,4.18a3.22,3.22,0,0,0,.51,2.87s-2.94.26-3.68,2.76a5.11,5.11,0,0,0,0,2.3C76.32,207.25,76.58,207,76.79,206.8Z"/><path class="cls-1" d="M276.09,312.48c-1.74-1.39-5-3-7-4.68-3.65-3-5.18-5-7.55-3.15,0,0-1.87-1-2.92.06a21.69,21.69,0,0,1-5.45,3.93c-2.24,1.05-5.66,2.56-6.3,4.18a3.23,3.23,0,0,0,.5,2.87s-2.94.26-3.68,2.77h0c1.2,3.19.61,6.64.52,9.12a6.26,6.26,0,0,1-.33,1.67,2,2,0,0,0,.77.77c1.61.84,2.75,1,3.38,2s-.39,1.87,1.63,2.88,4.62.29,6.15.71,2.87,2,5.88,1.85,5.65-2,7.68-2a7.72,7.72,0,0,0,4.47-1c1.25-.77,5.65-5,5.79-8.66S281,316.39,276.09,312.48Z"/><path class="cls-1" d="M309.5,306.23c-1.74-1.39-5-3-7-4.68-3.65-3-5.18-5-7.55-3.15,0,0-1.87-1-2.92.07a21.94,21.94,0,0,1-5.45,3.92c-2.24,1.05-5.66,2.56-6.3,4.18a3.25,3.25,0,0,0,.5,2.88s-2.94.25-3.68,2.76a4.17,4.17,0,0,0-.15,1.06c3.42,3.43,3,7.92,2.75,11.26a3.69,3.69,0,0,1,1.74,1.26c.63,1-.39,1.88,1.63,2.88s4.62.29,6.15.71,2.87,2,5.88,1.85,5.65-2,7.68-2a7.72,7.72,0,0,0,4.47-1c1.25-.77,5.65-5,5.79-8.66S314.39,310.14,309.5,306.23Z"/><path class="cls-1" d="M339,295.71c-1.74-1.39-5-3-7-4.68-3.65-3-5.18-5-7.55-3.15,0,0-1.87-1-2.92.07a21.94,21.94,0,0,1-5.45,3.92c-2.24,1.05-5.66,2.56-6.3,4.18a3.23,3.23,0,0,0,.5,2.87s-2.94.26-3.68,2.77a5.44,5.44,0,0,0,0,2.6,31.15,31.15,0,0,1,2.91,1.94c4.41,3.53,3.88,8.54,3.63,12.15,1.92.64,4.17.1,5.56.48,1.54.42,2.87,2,5.88,1.85s5.65-2,7.68-2a7.72,7.72,0,0,0,4.47-1.05c1.25-.77,5.65-5,5.79-8.66S343.84,299.62,339,295.71Z"/><path class="cls-1" d="M362,281.85c-1.74-1.4-5-3-7-4.68-3.65-3-5.18-5-7.55-3.15,0,0-1.88-1-2.92.06A21.58,21.58,0,0,1,339,278c-2.23,1.05-5.65,2.56-6.3,4.18a3.25,3.25,0,0,0,.51,2.87s-2.94.26-3.68,2.77a4.17,4.17,0,0,0-.15,1.06c.74.61,1.56,1.34,2.55,2.14,2,1.66,5.24,3.29,7,4.68,3.49,2.79,3.88,6.5,3.77,9.72a8.46,8.46,0,0,0,4.84,1.42c3-.14,5.66-2,7.68-2a7.68,7.68,0,0,0,4.47-1c1.26-.77,5.66-5,5.8-8.66S366.84,285.76,362,281.85Z"/><path class="cls-1" d="M379.69,266.16c-1.67-1.33-4.75-2.89-6.68-4.47-3.49-2.86-4.95-4.76-7.22-3,0,0-1.79-.94-2.8.06a20.45,20.45,0,0,1-5.21,3.76c-2.14,1-5.42,2.45-6,4a3.11,3.11,0,0,0,.48,2.75s-2.81.25-3.52,2.64a4.37,4.37,0,0,0-.12,1.53c1.79-.49,3.36,1.29,6.38,3.76,2,1.66,5.24,3.28,7,4.68a10.21,10.21,0,0,1,3.77,8.23h.21c2.87-.13,5.41-1.94,7.35-1.94a7.34,7.34,0,0,0,4.27-1c1.2-.73,5.41-4.81,5.55-8.28S384.37,269.91,379.69,266.16Z"/><path class="cls-1" d="M388.71,248.29C387,247,384,245.4,382,243.82c-3.49-2.86-5-4.76-7.23-3,0,0-1.79-.94-2.79.06a20.84,20.84,0,0,1-5.22,3.76c-2.14,1-5.41,2.44-6,4A14.06,14.06,0,0,0,360,251a7.42,7.42,0,0,0-1.69,3.28,6.91,6.91,0,0,0-.23,3.51c.7,2.07-.33,2.3-.53,3.1a6.38,6.38,0,0,0-.14,1.76l.34-.15a20.45,20.45,0,0,0,5.21-3.76c1-1,2.8-.06,2.8-.06,2.27-1.74,3.73.16,7.22,3,1.93,1.58,5,3.14,6.68,4.47a9.13,9.13,0,0,1,3,4.11,7.14,7.14,0,0,0,3.92-1c1.2-.74,5.41-4.81,5.54-8.28S393.38,252,388.71,248.29Z"/><path class="cls-1" d="M389.63,231.17c-1.67-1.34-4.75-2.9-6.68-4.48-3.49-2.86-4.95-4.75-7.22-3,0,0-1.79-.94-2.79.06a20.53,20.53,0,0,1-5.22,3.76c-2.14,1-3.55,1.46-4.16,3,0,0-.54,10.67-.51,16a41.09,41.09,0,0,1,3.74-1.89,20.84,20.84,0,0,0,5.22-3.76c1-1,2.79-.06,2.79-.06,2.27-1.74,3.74.16,7.23,3,1.93,1.58,5,3.14,6.68,4.47a9.78,9.78,0,0,1,1.41,1.39c1.43-1.64,2.84-3.83,2.92-5.82C393.17,240.39,394.31,234.91,389.63,231.17Z"/><path class="cls-1" d="M363.56,230.5c.61-1.55,2-2,4.16-3a20.53,20.53,0,0,0,5.22-3.76c1-1,2.79-.06,2.79-.06,2.27-1.73,3.73.16,7.22,3a34.75,34.75,0,0,0,3.66,2.46,6.91,6.91,0,0,0,.85-2.84c.14-3.48,1.27-9-3.41-12.7-1.66-1.33-4.74-2.89-6.68-4.47-3.48-2.86-4.95-4.76-7.22-3,0,0-1.79-.94-2.79.06a22.79,22.79,0,0,1-3.23,2.62Z"/><path class="cls-1" d="M364.13,208.8a22.79,22.79,0,0,0,3.23-2.62c1-1,2.79-.06,2.79-.06,1.56-1.19,2.74-.67,4.45.69a11.9,11.9,0,0,0,.18-3.85c-.61-5.79-10.24-9.51-10.24-9.51Z"/><path class="cls-2" d="M279.46,221.81s-1.17-4-.36-12.72c.43-4.69,2.26-11.48,2.18-13.77"/><path class="cls-2" d="M284.34,222.24s-.4-7.08-.37-11.79c0-6.28-.23-12.84-.31-15.13"/><path class="cls-2" d="M289.14,221.39a69.9,69.9,0,0,0-.11-10.94,94.18,94.18,0,0,0-3-15.52"/><path class="cls-2" d="M293.88,219.13s1.17-5.14-1-12.49a53.9,53.9,0,0,0-4.79-12.09"/><path class="cls-2" d="M297.48,209.62c-1-5.8-7.89-17.13-10.32-18.82h0a10.75,10.75,0,0,1-2.6.26c-1.38,0-3,.86-4.91,1.46-2.06,2.38-5.61,7.14-6.84,12.93-1.77,8.34-.08,20.51,4.82,20.08s3.38.28,5.07,0a39.71,39.71,0,0,1,4.14-.43c1.35-.08,2-.93,4-1.27s2.74-1.9,4.25-2.34S298.5,215.43,297.48,209.62Z"/><path class="cls-2" d="M372.57,163.36c-2.75-7.89-6.1-12.24-9.85-12.54h0a18,18,0,0,1-4.67,5.18,6.51,6.51,0,0,1-2.06.85h0s-1.67,10.68-2,16.05-1,12.41,4,12.92,12.26-4.07,13.32-5.75A21.34,21.34,0,0,0,372.57,163.36Z"/><path class="cls-2" d="M172.46,222.13s1.17-4,.36-12.72c-.43-4.69-2.27-11.48-2.18-13.77"/><path class="cls-2" d="M167.58,222.55s.4-7.07.36-11.78c-.05-6.28.23-12.84.32-15.13"/><path class="cls-2" d="M162.78,221.7a69.76,69.76,0,0,1,.11-10.93,94.18,94.18,0,0,1,3-15.52"/><path class="cls-2" d="M158,219.45s-1.17-5.14,1-12.49a54.26,54.26,0,0,1,4.8-12.09"/><path class="cls-2" d="M171.74,192.25a3,3,0,0,0-1.33-.84c-1.12-.31-3.34-.21-5.26-.52a4,4,0,0,0-.39.23c-2.43,1.69-9.31,13-10.33,18.82s.93,11.43,2.44,11.87,2.3,2,4.25,2.35,2.61,1.19,4,1.27a40,40,0,0,1,4.14.43c1.69.27.17-.43,5.07,0s6.59-11.74,4.82-20.08C177.76,199.46,173.66,194.35,171.74,192.25Z"/><path class="cls-2" d="M363.3,156.52s4.78,12.62,2.63,23.34"/><path class="cls-2" d="M365.86,155.65s5.55,10.29,3.38,21.95"/><path class="cls-2" d="M95.3,156.85s-.22-.46-.6-1.11a5.93,5.93,0,0,1-1.1-.38c-2-1-.83-1.2-1.44-2.17s-2.11-1.39-3.69-2.21a1.67,1.67,0,0,0-.16-.12c-3.65.47-6.91,4.79-9.6,12.5A21.34,21.34,0,0,0,80,180.07c1.06,1.68,8.29,6.26,13.32,5.75s4.32-7.55,4-12.92S95.3,156.85,95.3,156.85Z"/><path class="cls-2" d="M88,156.52s-4.78,12.62-2.63,23.34"/><path class="cls-2" d="M85.42,155.65s-5.54,10.29-3.37,21.95"/><path class="cls-2" d="M161.12,224.16c-2-.34-2.74-1.9-4.25-2.35a1.33,1.33,0,0,1-.43-.26c-2.6,3.37-11.34,12-29.79,7.11-19.08-5.11-28-35.43-30.27-44.8a3.86,3.86,0,0,1-3.1,2,10.15,10.15,0,0,1-3.07-.21c3.41,17.21,13.06,43.85,37.47,50.48,21.59,5.86,32.47-7.81,35-11.5A8.3,8.3,0,0,0,161.12,224.16Z"/><path class="cls-2" d="M272.73,218.84c-.7,1.95-11.87,31.67-46.9,31.67C194,250.51,181.52,225.9,179,220c-.77,3.17-2.11,5.48-4,5.81,2.81,5.27,18.29,31.2,50.83,31.2,33.85,0,49-27.9,50.86-31.56C274.76,224.94,273.44,222.3,272.73,218.84Z"/><path class="cls-2" d="M358,185.82c-2.15-.22-3.25-1.64-3.78-3.61-1.26,7-9,43.64-34.83,48.58-13,2.48-21.82-9.2-23-10.87-.43.88-.9,1.45-1.33,1.58-1.51.44-2.3,2-4.25,2.34l-.42.09c2,3.32,12.19,17.84,34.73,12.56,21-4.91,32.2-35.23,35.32-50.77A9.56,9.56,0,0,1,358,185.82Z"/><path class="cls-1" d="M197.22,67.9s12.25-5.38,12-19.17"/><path class="cls-1" d="M194.73,60.64s9.36-4.68,13-12.2"/><path class="cls-1" d="M208,71.31s14.42-8,3.6-23.15"/><path class="cls-1" d="M219,71.62s9.29-7.63.06-17.69a37.68,37.68,0,0,1-3.42-3.88"/><path class="cls-1" d="M167.1,71.25a20.64,20.64,0,0,0,11.23-19"/><path class="cls-1" d="M163.92,64.15s9.26-4.63,12.86-12.14"/><path class="cls-1" d="M177.06,74.88s14.42-8,3.6-23.16"/><path class="cls-1" d="M188.05,75.18s9.29-7.62.06-17.69a38.52,38.52,0,0,1-3.42-3.87"/><path class="cls-1" d="M142.44,75.94a20.27,20.27,0,0,0,7.61-16.3"/><path class="cls-1" d="M136,71.31c2.39-1.34,9.56-5.75,12.54-12"/><path class="cls-1" d="M148.78,82.22s14.42-8,3.6-23.15"/><path class="cls-1" d="M159.77,82.52s9.28-7.62.06-17.69A36.41,36.41,0,0,1,156.41,61"/><path class="cls-1" d="M119.94,85.37A20.08,20.08,0,0,0,126.58,70"/><path class="cls-1" d="M113.89,80.59c3.34-2.08,8.58-5.93,11.06-10.93"/><path class="cls-1" d="M127,91.8c3.65-2.77,11-10.4,2-22.43"/><path class="cls-1" d="M136.85,93.3s9.81-7.78.07-18a37.44,37.44,0,0,1-3.62-4"/><path class="cls-1" d="M105.58,96.21a19.78,19.78,0,0,0,4.18-12.73"/><path class="cls-1" d="M98.5,93.19c3.26-2.2,7.48-5.67,9.63-10"/><path class="cls-1" d="M113.89,101.58c2.86-4,4.6-10.23-1.66-18.68"/><path class="cls-1" d="M120,106.82s9.8-7.78.06-18a39.64,39.64,0,0,1-3.62-4"/><path class="cls-1" d="M96.57,109a19.7,19.7,0,0,0,3.24-11.39"/><path class="cls-1" d="M84.08,109.92s10.29-5,14.09-12.63"/><path class="cls-1" d="M105.36,113.26c1.8-3.92,2-9.37-3.09-16.26"/><path class="cls-1" d="M112.7,117.87c2.08-3.15,3.67-8.43-2.56-15a39.64,39.64,0,0,1-3.62-3.95"/><path class="cls-1" d="M85.51,133s12.93-5.48,12.69-19.54"/><path class="cls-1" d="M82.48,125.78s10.29-5,14.09-12.64"/><path class="cls-1" d="M104.91,124.23c.1-3.19-1-7-4.24-11.38"/><path class="cls-1" d="M112.74,129.42c.45-2.95-.34-6.62-4.2-10.69a38.55,38.55,0,0,1-3.62-4"/><path class="cls-1" d="M92,149.1s12.93-5.68,12.69-20.26"/><path class="cls-1" d="M89,141.64s10.28-5.16,14.09-13.11"/><path class="cls-1" d="M109.93,145.8c2.09-4.11,2.65-10-2.75-17.57"/><path class="cls-1" d="M118.49,139.58a17.55,17.55,0,0,0-3.44-5.25,37.58,37.58,0,0,1-3.62-4.09"/><path class="cls-1" d="M108.85,163.57s12.93-5.69,12.69-20.27"/><path class="cls-1" d="M105.82,156.1s10.28-5.16,14.09-13.11"/><path class="cls-1" d="M120.2,167.18s15.23-8.49,3.81-24.48"/><path class="cls-1" d="M135.78,155.39a16.28,16.28,0,0,0-3.9-6.6,37.58,37.58,0,0,1-3.62-4.09"/><path class="cls-1" d="M131.33,175.08s13.16-5.78,12.91-20.6"/><path class="cls-1" d="M128.25,167.49s10.46-5.24,14.33-13.33"/><path class="cls-1" d="M142.88,178.76s15.49-8.63,3.87-24.9"/><path class="cls-1" d="M159,171.35c.46-3.12-.34-7-4.27-11.29a40.15,40.15,0,0,1-3.68-4.16"/><path class="cls-1" d="M161.61,184s13.15-5.78,12.91-20.61"/><path class="cls-1" d="M158.53,176.37s10.46-5.24,14.33-13.32"/><path class="cls-1" d="M173.16,187.64s15.49-8.63,3.87-24.9"/><path class="cls-1" d="M185,188s10-8.2.07-19a40.15,40.15,0,0,1-3.68-4.16"/><path class="cls-1" d="M195.92,188.19s13.16-5.78,12.91-20.61"/><path class="cls-1" d="M192.84,180.6s10.46-5.25,14.33-13.33"/><path class="cls-1" d="M207.47,191.86S223,183.23,211.34,167"/><path class="cls-1" d="M219.28,192.19s10-8.2.06-19a40.39,40.39,0,0,1-3.68-4.17"/><path class="cls-1" d="M230,68.51s12.25-5.38,12-19.17"/><path class="cls-1" d="M227.09,61.45s9.73-4.88,13.33-12.4"/><path class="cls-1" d="M240.7,71.92s14.42-8,3.6-23.15"/><path class="cls-1" d="M255.55,61.18a15,15,0,0,0-3.8-6.64,37.68,37.68,0,0,1-3.42-3.88"/><path class="cls-1" d="M259.87,71.46s12.25-5.38,12-19.16"/><path class="cls-1" d="M257,64.4s9.73-4.88,13.34-12.39"/><path class="cls-1" d="M270.62,74.88s14.42-8,3.61-23.16"/><path class="cls-1" d="M285.72,67.4c.25-2.79-.63-6.18-4-9.91a37.26,37.26,0,0,1-3.43-3.87"/><path class="cls-1" d="M288.48,78.8s12.24-5.37,12-19.16"/><path class="cls-1" d="M285.61,71.74s9.74-4.88,13.34-12.39"/><path class="cls-1" d="M299.23,82.22s14.41-8,3.6-23.15"/><path class="cls-1" d="M314,71.19a15.34,15.34,0,0,0-3.73-6.36A35.28,35.28,0,0,1,306.85,61"/><path class="cls-1" d="M312,88.45s12.25-5.37,12-19.16"/><path class="cls-1" d="M309.18,81.39s9.73-4.88,13.33-12.39"/><path class="cls-1" d="M328.22,86.66c2.55-3.89,3.91-9.92-1.83-18"/><path class="cls-1" d="M337.41,80.29a15.82,15.82,0,0,0-3.57-5.81,37.44,37.44,0,0,1-3.42-3.87"/><path class="cls-1" d="M329,102.32s12.24-5.38,12-19.16"/><path class="cls-1" d="M326.08,95.26s9.73-4.88,13.34-12.4"/><path class="cls-1" d="M347.15,95.43c.57-3.45-.21-7.75-3.85-12.85"/><path class="cls-1" d="M354.21,93.83a16.4,16.4,0,0,0-3.46-5.48,36.48,36.48,0,0,1-3.43-3.88"/><path class="cls-1" d="M342.71,115.56a21.39,21.39,0,0,0,8.62-17.62"/><path class="cls-1" d="M335.71,110.64s10.22-5.12,14-13"/><path class="cls-1" d="M357.79,111c.67-3.66-.11-8.23-4-13.69"/><path class="cls-1" d="M365.19,116.68c1.24-3.33,1.27-8-3.59-13.29a40.54,40.54,0,0,1-3.6-4.07"/><path class="cls-1" d="M349.86,126a21.75,21.75,0,0,0,3.35-12.21"/><path class="cls-1" d="M337,127s10.63-5.33,14.56-13.53"/><path class="cls-1" d="M358,132.13c2.61-4.26,3.88-10.51-2.19-19"/><path class="cls-1" d="M363.82,138.74s10.14-8.33.07-19.32a40.59,40.59,0,0,1-3.74-4.23"/><path class="cls-1" d="M339.66,144.45a21.78,21.78,0,0,0,5.89-15.51"/><path class="cls-1" d="M333.73,139.45c3.4-2.34,7.87-6.11,10.13-10.83"/><path class="cls-1" d="M347.52,151c3.85-3.73,8.65-11.39.58-22.68"/><path class="cls-1" d="M352.49,130.38a40.59,40.59,0,0,0,3.74,4.23c10.07,11-.06,19.32-.06,19.32"/><path class="cls-1" d="M322.7,160.28a21.71,21.71,0,0,0,7.7-17.12"/><path class="cls-1" d="M315.84,155.38c3-1.75,9.91-6.29,12.9-12.53"/><path class="cls-1" d="M329,167.44s15.49-8.63,3.87-24.9"/><path class="cls-1" d="M340.85,167.77s10-8.2.06-19a40.15,40.15,0,0,1-3.68-4.16"/><path class="cls-1" d="M295.05,174.23a21.32,21.32,0,0,0,11.74-20"/><path class="cls-1" d="M290.8,167.25s10.46-5.25,14.33-13.33"/><path class="cls-1" d="M305.42,178.51s15.5-8.63,3.88-24.89"/><path class="cls-1" d="M317.23,178.84s10-8.2.07-19a39.12,39.12,0,0,1-3.68-4.16"/><path class="cls-1" d="M263.81,184s13.16-5.78,12.91-20.61"/><path class="cls-1" d="M261.26,176.09s9.93-5,13.8-13"/><path class="cls-1" d="M275.36,187.64s15.49-8.63,3.87-24.9"/><path class="cls-1" d="M287.17,188s10-8.2.07-19a40.09,40.09,0,0,1-3.69-4.16"/><path class="cls-1" d="M243.42,163.37a1.83,1.83,0,0,0-2.37,0c-1.05,1-3.35,4-5.59,5.1s-5.66,2.56-6.3,4.18a3.23,3.23,0,0,0,.5,2.87s-2.93.26-3.67,2.76a7.16,7.16,0,0,0,.39,3.94c.73,2.17,0,2.64-.25,3.48s-.43,3.56,1.18,4.39,3.12,1.28,3.75,2.26-.56,1.2,1.47,2.2,5.65.66,7.19,1.08,1.26,1.82,4.26,1.68,5.66-2,7.68-2a7.78,7.78,0,0,0,4.47-1c1.26-.77,5.66-5,5.8-8.66s1.32-9.36-3.56-13.27c-1.75-1.4-5-3-7-4.68C247.74,164.64,245.8,161.55,243.42,163.37Z"/><path class="cls-1" d="M230.92,188.19s13.15-5.78,12.91-20.61"/><path class="cls-1" d="M227.84,180.6s10.46-5.25,14.33-13.33"/><path class="cls-1" d="M242.47,191.86S258,183.23,246.34,167"/><path class="cls-1" d="M254.28,192.19s10-8.2.06-19a40.39,40.39,0,0,1-3.68-4.17"/><path class="cls-1" d="M226.13,185.7c.21-.84,1-1.31.25-3.48a7.16,7.16,0,0,1-.39-3.94,3.34,3.34,0,0,1,.63-1.2,9.48,9.48,0,0,0-3.25-4.77c-1.75-1.4-5-3-7-4.68-3.64-3-5.58-6.08-8-4.26a1.83,1.83,0,0,0-2.37,0c-1.05,1-3.35,4-5.59,5.1s-5.66,2.56-6.3,4.18a3.22,3.22,0,0,0,.51,2.87s-2.94.26-3.68,2.76a7.16,7.16,0,0,0,.39,3.94c.74,2.17,0,2.64-.25,3.48s-.42,3.56,1.18,4.39,3.12,1.28,3.75,2.26-.56,1.2,1.47,2.2,5.66.66,7.19,1.08,1.26,1.82,4.26,1.68,5.66-2,7.68-2a7.76,7.76,0,0,0,4.47-1,17.76,17.76,0,0,0,5-5.88A6.33,6.33,0,0,1,226.13,185.7Z"/><path class="cls-1" d="M191.38,182.22a7.16,7.16,0,0,1-.39-3.94,3.61,3.61,0,0,1,1.83-2.17,10.18,10.18,0,0,0-3.77-8c-1.74-1.39-5-3-7-4.67-3.64-3-5.59-6.08-8-4.26a1.83,1.83,0,0,0-2.37,0c-1.05,1-3.36,4-5.59,5.09s-5.66,2.56-6.3,4.18a3.25,3.25,0,0,0,.5,2.88s-2.93.26-3.68,2.76a7.15,7.15,0,0,0,.4,3.94c.73,2.16,0,2.64-.25,3.47s-.43,3.56,1.18,4.4,3.12,1.28,3.75,2.26-.56,1.19,1.47,2.2,5.65.66,7.19,1.08,1.26,1.81,4.26,1.67,5.66-2,7.68-2a7.7,7.7,0,0,0,4.47-1.05,17.76,17.76,0,0,0,4.72-5.34A3.5,3.5,0,0,0,191.38,182.22Z"/><path class="cls-1" d="M157.07,178a7.15,7.15,0,0,1-.4-3.94c.75-2.5,3.68-2.76,3.68-2.76a3.25,3.25,0,0,1-.5-2.88,6,6,0,0,1,2.61-2.33,9.84,9.84,0,0,0-3.68-6.89c-1.75-1.39-5-3-7-4.68-3.64-3-5.58-6.07-8-4.26a1.84,1.84,0,0,0-2.37,0c-1.05,1.05-3.35,4.05-5.59,5.1s-5.66,2.56-6.3,4.18a3.22,3.22,0,0,0,.51,2.87s-2.94.26-3.68,2.77a7.16,7.16,0,0,0,.39,3.94c.74,2.16,0,2.63-.25,3.47s-.42,3.56,1.18,4.4,3.12,1.28,3.75,2.25-.56,1.2,1.47,2.21,5.66.66,7.19,1.08,1.26,1.81,4.26,1.67,5.66-2,7.68-2a7.68,7.68,0,0,0,4.47-1.05,4.43,4.43,0,0,0,.59-.43A3.31,3.31,0,0,0,157.07,178Z"/><path class="cls-1" d="M126.79,169.12a7.16,7.16,0,0,1-.39-3.94c.74-2.51,3.68-2.77,3.68-2.77a3.22,3.22,0,0,1-.51-2.87c.64-1.62,4.07-3.13,6.3-4.18a12.08,12.08,0,0,0,3.22-2.53,9.29,9.29,0,0,0-3.26-4.88c-1.71-1.37-4.88-3-6.86-4.6-3.59-2.94-5.5-6-7.83-4.19a1.81,1.81,0,0,0-2.34,0c-1,1-3.29,4-5.49,5s-5.56,2.52-6.19,4.11a3.19,3.19,0,0,0,.49,2.83s-2.89.25-3.62,2.71a7,7,0,0,0,.39,3.88c.72,2.12,0,2.59-.24,3.41s-.42,3.5,1.16,4.33,3.07,1.25,3.69,2.22-.55,1.17,1.44,2.16,5.56.65,7.07,1.06,1.24,1.79,4.19,1.65a18.81,18.81,0,0,0,5.39-1.51A4.25,4.25,0,0,0,126.79,169.12Z"/><path class="cls-1" d="M104.49,158.08a3.18,3.18,0,0,0-.11-.38,7,7,0,0,1-.39-3.88c.73-2.46,3.62-2.71,3.62-2.71a3.19,3.19,0,0,1-.49-2.83c.63-1.59,4-3.08,6.19-4.11s4.46-4,5.49-5a1.81,1.81,0,0,1,2.34,0,2.32,2.32,0,0,1,1.19-.51,9.37,9.37,0,0,0-3.33-5.16c-1.71-1.37-4.88-3-6.86-4.6-3.59-2.94-5.5-6-7.83-4.19a1.81,1.81,0,0,0-2.34,0c-1,1-3.29,4-5.49,5s-5.56,2.52-6.19,4.11a3.19,3.19,0,0,0,.49,2.83s-2.89.25-3.62,2.71a7,7,0,0,0,.39,3.88c.72,2.12,0,2.59-.24,3.41s-.42,3.5,1.16,4.33,3.07,1.25,3.69,2.21-.55,1.18,1.44,2.17,5.56.65,7.07,1.06S101.93,158.08,104.49,158.08Z"/><path class="cls-1" d="M87.27,139.08c.86-2.19,3.51-2.43,3.51-2.43a3.19,3.19,0,0,1-.49-2.83c.63-1.59,4-3.08,6.19-4.11s4.46-4,5.49-5a1.81,1.81,0,0,1,2.34,0c2.33-1.79,4.24,1.25,7.83,4.19a35.55,35.55,0,0,0,3.73,2.51,5.58,5.58,0,0,0,.13-.9c.14-3.44,1.3-8.87-3.5-12.58-1.72-1.32-4.88-2.87-6.87-4.44-3.58-2.83-5.49-5.76-7.83-4a1.85,1.85,0,0,0-2.33,0c-1,1-3.3,3.84-5.5,4.84s-5.56,2.42-6.19,4a3,3,0,0,0,.5,2.73s-2.89.24-3.62,2.62a6.53,6.53,0,0,0,.39,3.73c.72,2.05,0,2.5-.25,3.3S80.38,134,82,134.79,85,136,85.65,136.93s-.55,1.13,1.44,2.09Z"/><path class="cls-1" d="M114.1,102.06c-1.71-1.32-4.88-2.86-6.87-4.43-3.58-2.84-5.49-5.77-7.83-4a1.84,1.84,0,0,0-2.33,0c-1,1-3.3,3.84-5.49,4.83s-5.57,2.43-6.2,4a3,3,0,0,0,.5,2.72s-2.89.25-3.62,2.62a6.58,6.58,0,0,0,.39,3.74c.72,2,0,2.5-.25,3.29s-.42,3.37,1.16,4.17l.07,0a2.16,2.16,0,0,1,.15-.72c.63-1.54,4-3,6.19-4s4.47-3.84,5.5-4.84a1.85,1.85,0,0,1,2.33,0c2.34-1.72,4.25,1.21,7.83,4,2,1.57,5.15,3.12,6.87,4.44a9.39,9.39,0,0,1,2.2,2.39c1.43-1.62,2.82-3.73,2.9-5.66C117.74,111.2,118.91,105.77,114.1,102.06Z"/><path class="cls-1" d="M124.06,88c-1.72-1.32-4.88-2.86-6.87-4.43-3.58-2.84-5.49-5.77-7.83-4a1.84,1.84,0,0,0-2.33,0c-1,1-3.3,3.84-5.5,4.83s-5.56,2.43-6.19,4a3,3,0,0,0,.5,2.72s-2.89.25-3.62,2.62a6.49,6.49,0,0,0,.39,3.74c0,.13.07.25.11.37a35.23,35.23,0,0,0,4.35-4.15,1.84,1.84,0,0,1,2.33,0c2.34-1.73,4.25,1.2,7.83,4,2,1.57,5.16,3.11,6.87,4.43a9.53,9.53,0,0,1,3.71,7.68,7.54,7.54,0,0,0,4-1c1.24-.73,5.56-4.77,5.7-8.21S128.86,91.67,124.06,88Z"/><path class="cls-1" d="M140.88,74.44C139.16,73.12,136,71.57,134,70c-3.58-2.83-5.49-5.76-7.83-4a1.85,1.85,0,0,0-2.33,0c-1,1-3.3,3.84-5.5,4.84s-5.56,2.42-6.19,4a3,3,0,0,0,.49,2.73,4.58,4.58,0,0,0-3.33,2l0,0c2.34-1.73,4.25,1.2,7.83,4,2,1.57,5.15,3.11,6.87,4.43,3.75,2.9,3.86,6.85,3.66,10.08,2.55-.41,4.8-1.81,6.56-1.81a7.83,7.83,0,0,0,4.4-1c1.23-.72,5.56-4.76,5.7-8.21S145.68,78.15,140.88,74.44Z"/><path class="cls-1" d="M163.58,64c-1.62-1.29-4.62-2.81-6.5-4.35-3.39-2.78-5.2-5.65-7.41-4a1.72,1.72,0,0,0-2.21,0c-1,1-3.12,3.77-5.2,4.74s-5.27,2.38-5.87,3.89a3,3,0,0,0,.47,2.67s-2.69.24-3.41,2.53L134,70c2,1.57,5.15,3.12,6.87,4.44,4.15,3.2,3.84,7.69,3.59,11.07a9.19,9.19,0,0,1,1.75.21c1.43.39,1.17,1.69,4,1.56s5.26-1.88,7.15-1.88a7.15,7.15,0,0,0,4.16-1c1.17-.71,5.26-4.67,5.39-8S168.13,67.67,163.58,64Z"/><path class="cls-1" d="M191.86,56.69c-1.62-1.3-4.62-2.81-6.5-4.35-3.39-2.78-5.2-5.65-7.41-4a1.7,1.7,0,0,0-2.21,0c-1,1-3.12,3.76-5.2,4.74s-5.27,2.38-5.86,3.89a3,3,0,0,0,.47,2.67s-2.74.24-3.43,2.57a3,3,0,0,0-.09.45,23.25,23.25,0,0,1,2,1.33c4.55,3.64,3.44,9,3.31,12.34a2.33,2.33,0,0,1,0,.38,3.31,3.31,0,0,0,1,.63c1.89.93,5.27.61,6.7,1s1.17,1.69,4,1.56,5.27-1.88,7.15-1.88a7.13,7.13,0,0,0,4.16-1c1.17-.71,5.27-4.67,5.4-8S196.41,60.33,191.86,56.69Z"/><path class="cls-1" d="M291.26,168.08c-1.74-1.39-5-3-7-4.67-3.65-3-5.59-6.08-8-4.26a1.84,1.84,0,0,0-2.38,0c-1.05,1-3.35,4-5.59,5.09s-5.65,2.56-6.3,4.18a3.28,3.28,0,0,0,.51,2.88,4.69,4.69,0,0,0-3.26,1.86c3.79,3.85,2.76,9,2.63,12.42a6.4,6.4,0,0,1-.16,1,5.05,5.05,0,0,1,2.19,1.51c.62,1-.56,1.19,1.46,2.2s5.66.66,7.19,1.08,1.26,1.81,4.26,1.67,5.66-2,7.69-2A7.72,7.72,0,0,0,289,190c1.25-.77,5.65-5,5.79-8.66S296.15,172,291.26,168.08Z"/><path class="cls-1" d="M321.32,159c-1.74-1.4-5-3-7-4.68-3.64-3-5.59-6.08-8-4.26a1.83,1.83,0,0,0-2.37,0c-1.05,1-3.36,4-5.59,5.1s-5.66,2.55-6.3,4.18a3.23,3.23,0,0,0,.5,2.87s-2.93.26-3.68,2.76a4.39,4.39,0,0,0-.13,1.49,28.58,28.58,0,0,1,2.45,1.66c4.67,3.74,3.8,9.12,3.59,12.77a6.62,6.62,0,0,0,.64.35c2,1,5.65.66,7.19,1.08s1.26,1.82,4.26,1.68,5.65-2,7.68-2a7.72,7.72,0,0,0,4.47-1.05c1.26-.76,5.66-5,5.8-8.66S326.21,162.87,321.32,159Z"/><path class="cls-1" d="M344.94,147.89c-1.75-1.4-5-3-7-4.68-3.64-3-5.58-6.08-8-4.26a1.83,1.83,0,0,0-2.37,0c-1.05,1-3.35,4.05-5.59,5.1s-5.66,2.55-6.3,4.18a3.23,3.23,0,0,0,.5,2.87,4.67,4.67,0,0,0-3.31,1.94c.44.41.91.82,1.42,1.24,2,1.65,5.24,3.28,7,4.68,4.38,3.5,3.89,8.45,3.64,12.06a7.17,7.17,0,0,1,1.33.19c1.54.42,1.26,1.82,4.26,1.68s5.66-2,7.68-2a7.7,7.7,0,0,0,4.47-1.05c1.26-.77,5.66-5,5.8-8.66S349.82,151.8,344.94,147.89Z"/><path class="cls-1" d="M360.32,133.74c-1.77-1.42-5-3.07-7.09-4.75-3.71-3-5.68-6.17-8.1-4.33a1.87,1.87,0,0,0-2.41,0c-1.06,1.07-3.41,4.12-5.68,5.18s-5.75,2.6-6.4,4.25a3.26,3.26,0,0,0,.51,2.91,4.9,4.9,0,0,0-3.15,1.66,2,2,0,0,1,2,.29c2.38-1.82,4.32,1.27,8,4.26,2,1.65,5.24,3.28,7,4.68,3.82,3.05,3.92,7.21,3.72,10.62,1.84-.61,3.49-1.44,4.85-1.44a7.84,7.84,0,0,0,4.54-1.07c1.28-.78,5.75-5.1,5.89-8.79S365.29,137.71,360.32,133.74Z"/><path class="cls-1" d="M368,118.55c-1.77-1.41-5-3.07-7.1-4.75-3.7-3-5.67-6.17-8.09-4.32a1.86,1.86,0,0,0-2.41,0c-1.07,1.06-3.41,4.11-5.68,5.17s-5.75,2.6-6.4,4.25a3.26,3.26,0,0,0,.51,2.91s-3,.27-3.74,2.81a7.26,7.26,0,0,0,.41,4,4.65,4.65,0,0,1,.3,1.81l1.26-.59c2.27-1.06,4.62-4.11,5.68-5.18a1.87,1.87,0,0,1,2.41,0c2.42-1.84,4.39,1.3,8.1,4.33,2,1.68,5.32,3.33,7.09,4.75a10.2,10.2,0,0,1,3.82,7.79,7.1,7.1,0,0,0,1.57-.71c1.28-.78,5.75-5.11,5.89-8.8S373,122.52,368,118.55Z"/><path class="cls-1" d="M338.63,121.84l.18,0a3.26,3.26,0,0,1-.51-2.91c.65-1.65,4.13-3.18,6.4-4.25s4.61-4.11,5.68-5.17a1.86,1.86,0,0,1,2.41,0c2.42-1.85,4.39,1.29,8.09,4.32,2.06,1.68,5.33,3.34,7.1,4.75l.06,0a7.33,7.33,0,0,0,1-3.09c.13-3.55,1.29-9.14-3.48-13-1.71-1.36-4.85-3-6.83-4.57-3.56-2.91-5.46-5.93-7.78-4.16a1.8,1.8,0,0,0-2.32,0c-1,1-3.27,4-5.46,5s-5.53,2.5-6.15,4.08a3.15,3.15,0,0,0,.49,2.81s-2.87.25-3.6,2.7a6.91,6.91,0,0,0,.39,3.84c.72,2.11,0,2.58-.25,3.39s-.41,3.48,1.16,4.3C336.59,120.65,337.92,121.07,338.63,121.84Z"/><path class="cls-1" d="M333.89,108.39c.73-2.45,3.6-2.7,3.6-2.7a3.15,3.15,0,0,1-.49-2.81c.62-1.58,4-3.06,6.15-4.08s4.44-4,5.46-5a1.8,1.8,0,0,1,2.32,0c2.15-1.64,3.95.84,7,3.53.18-3.15,0-7-3.48-9.8-1.62-1.3-4.62-2.81-6.5-4.35-3.39-2.78-5.2-5.65-7.41-4a1.7,1.7,0,0,0-2.21,0c-1,1-3.12,3.76-5.2,4.74s-5.26,2.38-5.86,3.89a3,3,0,0,0,.47,2.67s-2.74.24-3.43,2.57a6.68,6.68,0,0,0,.37,3.66c.68,2,0,2.45-.23,3.23s-.4,3.31,1.1,4.09,2.9,1.19,3.49,2.1-.52,1.11,1.36,2a9.66,9.66,0,0,0,3.34.69A3,3,0,0,1,333.89,108.39Z"/><path class="cls-1" d="M324.72,96.77a6.68,6.68,0,0,1-.37-3.66c.69-2.33,3.43-2.57,3.43-2.57a3,3,0,0,1-.47-2.67c.6-1.51,3.78-2.92,5.86-3.89s4.23-3.77,5.2-4.74a1.7,1.7,0,0,1,2.21,0,2.68,2.68,0,0,1,.28-.18,8.94,8.94,0,0,0-3.27-5.38c-1.62-1.3-4.62-2.81-6.5-4.35-3.39-2.78-5.2-5.65-7.41-4a1.72,1.72,0,0,0-2.21,0c-1,1-3.12,3.77-5.2,4.74S311,72.49,310.41,74a3,3,0,0,0,.46,2.67s-2.73.24-3.42,2.57a6.57,6.57,0,0,0,.37,3.66c.68,2,0,2.45-.24,3.23s-.39,3.31,1.1,4.09,2.91,1.19,3.49,2.1-.52,1.11,1.37,2.05,5.26.61,6.69,1,1.17,1.69,4,1.56c.19,0,.37,0,.55-.06Z"/><path class="cls-1" d="M307.88,85.4a3.14,3.14,0,0,0-.06-2.5,6.57,6.57,0,0,1-.37-3.66c.69-2.33,3.42-2.57,3.42-2.57a3,3,0,0,1-.46-2.67c.59-1.51,3.78-2.92,5.86-3.89a6.63,6.63,0,0,0,1-.63A8.89,8.89,0,0,0,314,64c-1.62-1.29-4.62-2.81-6.5-4.35-3.39-2.78-5.2-5.65-7.41-4a1.71,1.71,0,0,0-2.21,0c-1,1-3.12,3.77-5.2,4.74s-5.26,2.38-5.86,3.89a3,3,0,0,0,.47,2.67s-2.73.24-3.42,2.57a6.68,6.68,0,0,0,.36,3.66c.69,2,0,2.45-.23,3.23s-.4,3.31,1.1,4.09,2.9,1.19,3.49,2.1-.52,1.11,1.36,2,5.27.61,6.7,1,1.17,1.69,4,1.56,5.27-1.88,7.15-1.88Z"/><path class="cls-1" d="M284,76.48c.19-.78.92-1.22.23-3.23a6.68,6.68,0,0,1-.36-3.66c.69-2.33,3.42-2.57,3.42-2.57a3,3,0,0,1-.47-2.67,4.78,4.78,0,0,1,1.92-1.87,9,9,0,0,0-3.34-5.79c-1.62-1.3-4.62-2.81-6.5-4.35-3.39-2.78-5.2-5.65-7.41-4a1.7,1.7,0,0,0-2.21,0c-1,1-3.12,3.76-5.2,4.74s-5.26,2.38-5.86,3.89a3,3,0,0,0,.47,2.67s-2.74.24-3.43,2.57a6.59,6.59,0,0,0,.37,3.66c.68,2,0,2.45-.23,3.23s-.4,3.31,1.1,4.09,2.9,1.19,3.49,2.1-.52,1.11,1.36,2,5.27.61,6.7,1,1.17,1.69,4,1.56,5.27-1.88,7.15-1.88a7.13,7.13,0,0,0,4.16-1,5.19,5.19,0,0,0,.66-.49S284,76.51,284,76.48Z"/><path class="cls-1" d="M255.42,69.14c.19-.78.91-1.22.23-3.23a6.59,6.59,0,0,1-.37-3.66c.69-2.33,3.43-2.57,3.43-2.57a3.11,3.11,0,0,1-.53-2.45,8.83,8.83,0,0,0-2.68-3.49c-1.62-1.3-4.62-2.81-6.5-4.35-3.39-2.78-5.2-5.65-7.41-4a1.7,1.7,0,0,0-2.21,0c-1,1-3.12,3.76-5.2,4.74s-5.27,2.38-5.87,3.88a3.05,3.05,0,0,0,.47,2.68s-2.73.24-3.42,2.57a6.59,6.59,0,0,0,.37,3.66c.68,2,0,2.45-.24,3.23s-.39,3.31,1.1,4.09,2.91,1.19,3.49,2.1-.52,1.11,1.37,2.05,5.26.61,6.69,1,1.17,1.69,4,1.56,5.26-1.89,7.15-1.89a7.23,7.23,0,0,0,4.16-1,12.29,12.29,0,0,0,2.18-2A5.47,5.47,0,0,1,255.42,69.14Z"/><path class="cls-1" d="M225.49,66.19c.2-.78.92-1.22.24-3.23a6.59,6.59,0,0,1-.37-3.66,3.05,3.05,0,0,1,.6-1.13,8.88,8.88,0,0,0-3.19-5c-1.62-1.3-4.62-2.81-6.5-4.35-3.39-2.78-5.2-5.65-7.41-4a1.7,1.7,0,0,0-2.21,0c-1,1-3.12,3.76-5.2,4.74s-5.27,2.37-5.86,3.88a3,3,0,0,0,.47,2.67,4.44,4.44,0,0,0-3,1.71c3.15,3.55,2.25,8.17,2.14,11.21a5.41,5.41,0,0,1-.2,1.17,5.59,5.59,0,0,1,2.38,1.56c.58.91-.52,1.12,1.36,2s5.27.62,6.7,1,1.17,1.69,4,1.56,5.27-1.89,7.15-1.89a7.21,7.21,0,0,0,4.16-1,16.32,16.32,0,0,0,4.7-5.55A6.42,6.42,0,0,1,225.49,66.19Z"/></svg>