<svg id="cream4_line" xmlns="http://www.w3.org/2000/svg" viewBox="0 0 450 390"><defs><style>.cls-1{fill:none;stroke:#000;stroke-linecap:round;stroke-linejoin:round;}</style></defs><path class="cls-1" d="M363.11,240.46c0,40.64-61.68,73.59-137.76,73.59S87.6,281.1,87.6,240.46l-.72-26.36c-7.59,9.73-11.78,20.42-11.78,31.64C75.1,290.62,142.21,327,225,327s149.9-36.37,149.9-81.25c0-10.9-3.95-21.3-11.13-30.79Z"/><path class="cls-1" d="M225.33,53.08C145.84,53.08,81.39,85.26,81.39,125s64.45,71.89,143.94,71.89S369.28,164.67,369.28,125,304.83,53.08,225.33,53.08Zm0,129.46c-71.78,0-130-26.16-130-58.43s58.19-58.43,130-58.43,130,26.16,130,58.43S297.12,182.54,225.33,182.54Z"/></svg>